<?xml version="1.0" standalone="no"?>
<!DOCTYPE svg PUBLIC "-//W3C//DTD SVG 20010904//EN"
 "http://www.w3.org/TR/2001/REC-SVG-20010904/DTD/svg10.dtd">
<svg version="1.0" xmlns="http://www.w3.org/2000/svg"
 width="512.000000pt" height="512.000000pt" viewBox="0 0 512.000000 512.000000"
 preserveAspectRatio="xMidYMid meet">
<metadata>
Created by potrace 1.16, written by Peter Selinger 2001-2019
</metadata>
<g transform="translate(0.000000,512.000000) scale(0.100000,-0.100000)"
fill="#000000" stroke="none">
<path d="M2570 4875 l0 -245 55 0 c162 0 401 -42 590 -105 703 -232 1231 -828
1374 -1550 22 -108 41 -277 41 -356 l0 -49 245 0 245 0 0 95 c0 499 -210 1070
-554 1505 -77 97 -299 319 -396 396 -435 344 -1006 554 -1505 554 l-95 0 0
-245z"/>
<path d="M759 4616 c-90 -24 -141 -66 -400 -325 -233 -233 -259 -263 -292
-331 -53 -110 -67 -181 -67 -351 0 -170 21 -305 76 -486 268 -887 991 -1837
1864 -2450 388 -273 852 -506 1198 -604 247 -69 528 -90 686 -49 157 40 194
68 474 350 222 225 257 264 289 328 33 66 37 81 37 152 0 70 -4 86 -37 152
-33 67 -65 102 -399 434 -420 418 -422 419 -568 419 -75 0 -93 -4 -155 -33
-61 -29 -96 -60 -300 -261 -126 -125 -238 -231 -248 -234 -21 -8 -256 112
-367 186 -383 257 -792 666 -1042 1042 -82 123 -178 312 -178 351 0 23 39 67
228 258 251 254 285 301 298 419 8 71 -15 165 -56 227 -39 60 -704 724 -760
760 -50 32 -145 60 -200 59 -19 0 -56 -6 -81 -13z"/>
<path d="M2570 3970 l0 -250 54 0 c131 0 346 -57 480 -128 194 -101 373 -280
481 -477 76 -139 135 -354 135 -491 l0 -54 250 0 250 0 -6 78 c-36 527 -260
947 -669 1251 -250 187 -547 291 -897 315 l-78 6 0 -250z"/>
</g>
</svg>
