<?xml version="1.0" standalone="no"?>
<!DOCTYPE svg PUBLIC "-//W3C//DTD SVG 20010904//EN"
 "http://www.w3.org/TR/2001/REC-SVG-20010904/DTD/svg10.dtd">
<svg version="1.0" xmlns="http://www.w3.org/2000/svg"
 width="512.000000pt" height="512.000000pt" viewBox="0 0 512.000000 512.000000"
 preserveAspectRatio="xMidYMid meet">
<metadata>
Created by potrace 1.16, written by Peter Selinger 2001-2019
</metadata>
<g transform="translate(0.000000,512.000000) scale(0.100000,-0.100000)"
fill="#000000" stroke="none">
<path d="M2749 5097 c-21 -14 -41 -41 -53 -69 -17 -42 -18 -52 -7 -90 23 -75
60 -101 186 -127 641 -133 1177 -489 1556 -1036 183 -263 306 -560 384 -927
18 -85 42 -124 91 -144 74 -31 154 -7 194 58 25 41 25 71 0 194 -147 718 -575
1345 -1200 1756 -269 178 -582 310 -907 383 -142 32 -199 32 -244 2z"/>
<path d="M860 4811 c-145 -40 -207 -88 -492 -384 -232 -241 -276 -302 -322
-439 -14 -41 -30 -108 -37 -149 -14 -90 -6 -320 15 -434 78 -424 330 -968 666
-1439 435 -610 968 -1107 1574 -1470 727 -435 1364 -595 1754 -439 122 49 196
109 443 359 308 313 344 372 344 569 -1 115 -20 182 -81 275 -20 30 -196 215
-393 411 -315 314 -364 359 -426 391 -114 58 -225 72 -340 43 -118 -31 -167
-67 -388 -285 l-209 -205 -91 49 c-450 241 -1034 831 -1243 1259 l-26 53 189
189 c104 105 208 218 230 252 58 87 85 174 85 271 0 96 -13 146 -60 237 -31
62 -78 112 -401 436 -397 397 -427 422 -561 453 -84 20 -149 19 -230 -3z m210
-312 c19 -9 189 -172 377 -361 314 -315 342 -347 356 -393 31 -107 -1 -154
-280 -423 -222 -214 -238 -238 -230 -337 4 -52 16 -87 66 -189 133 -269 329
-526 635 -831 261 -261 521 -456 788 -594 126 -65 142 -71 198 -71 42 0 74 7
103 21 24 13 138 116 272 248 188 186 238 229 271 239 107 31 123 19 511 -371
345 -346 373 -380 373 -457 0 -70 -33 -115 -247 -333 -228 -232 -255 -258
-325 -293 -183 -93 -487 -66 -863 77 -624 238 -1295 713 -1770 1252 -316 360
-544 694 -725 1062 -280 570 -349 995 -202 1240 30 50 466 491 507 512 64 35
120 35 185 2z"/>
<path d="M2750 4190 c-44 -11 -97 -68 -106 -115 -17 -93 41 -165 152 -185 479
-88 901 -465 1052 -940 16 -52 33 -115 37 -139 18 -107 70 -163 152 -164 95
-1 153 56 153 150 0 66 -48 251 -95 368 -199 492 -636 875 -1142 999 -128 31
-161 36 -203 26z"/>
</g>
</svg>
