<?xml version="1.0" standalone="no"?>
<!DOCTYPE svg PUBLIC "-//W3C//DTD SVG 20010904//EN"
 "http://www.w3.org/TR/2001/REC-SVG-20010904/DTD/svg10.dtd">
<svg version="1.0" xmlns="http://www.w3.org/2000/svg"
 width="512.000000pt" height="512.000000pt" viewBox="0 0 512.000000 512.000000"
 preserveAspectRatio="xMidYMid meet">

<g transform="translate(0.000000,512.000000) scale(0.100000,-0.100000)"
fill="#000000" stroke="none">
<path d="M3175 5113 c-271 -32 -444 -81 -646 -183 -499 -252 -841 -698 -955
-1244 -32 -154 -42 -393 -24 -557 21 -201 90 -430 184 -617 35 -69 153 -250
200 -307 l25 -30 -180 -181 -180 -180 -70 23 c-139 47 -302 27 -423 -51 -28
-19 -270 -254 -537 -522 -436 -439 -490 -496 -518 -554 -179 -374 155 -790
557 -695 130 31 133 33 665 564 481 479 499 499 538 576 62 125 69 265 21 393
l-19 50 181 180 181 181 30 -25 c178 -147 437 -276 671 -337 176 -45 237 -52
464 -51 193 0 228 3 341 27 442 94 813 328 1080 682 399 529 470 1246 183
1845 -270 563 -804 941 -1426 1009 -91 10 -275 13 -343 4z m450 -323 c297 -63
541 -195 756 -409 215 -216 345 -456 410 -761 30 -139 33 -417 6 -555 -64
-327 -209 -591 -448 -820 -203 -194 -442 -317 -739 -382 -129 -27 -448 -25
-582 5 -138 30 -237 65 -363 128 -407 202 -696 576 -797 1032 -30 134 -32 453
-5 582 69 316 193 546 412 765 258 259 514 382 910 439 75 11 343 -4 440 -24z
m-2179 -3241 c46 -14 95 -70 109 -127 14 -54 9 -97 -18 -147 -27 -51 -927
-942 -969 -960 -157 -65 -318 96 -253 253 18 42 909 942 960 969 59 32 97 34
171 12z"/>
<path d="M4001 4098 c-86 -46 -81 -2 -81 -768 0 -623 1 -678 18 -709 24 -48
62 -73 119 -78 64 -6 110 20 140 78 l23 43 -2 677 c-3 667 -3 678 -24 705 -53
72 -122 90 -193 52z"/>
<path d="M3001 3798 c-84 -45 -81 -21 -81 -618 0 -480 2 -528 18 -559 24 -48
62 -73 119 -78 64 -6 110 20 141 78 l23 43 -3 527 c-3 515 -3 528 -24 555 -53
72 -122 90 -193 52z"/>
<path d="M3501 3598 c-83 -44 -81 -34 -81 -518 0 -385 2 -428 18 -459 24 -48
62 -73 119 -78 64 -6 110 20 141 78 l23 43 -3 427 c-3 414 -4 428 -24 455 -53
72 -122 90 -193 52z"/>
<path d="M2501 3298 c-79 -42 -81 -52 -81 -368 0 -242 2 -279 18 -309 24 -48
62 -73 119 -78 64 -6 110 20 141 78 23 43 23 48 20 321 -3 261 -4 278 -24 304
-53 72 -122 90 -193 52z"/>
</g>
</svg>
