<?xml version="1.0" standalone="no"?>
<!DOCTYPE svg PUBLIC "-//W3C//DTD SVG 20010904//EN"
 "http://www.w3.org/TR/2001/REC-SVG-20010904/DTD/svg10.dtd">
<svg version="1.0" xmlns="http://www.w3.org/2000/svg"
 width="512.000000pt" height="512.000000pt" viewBox="0 0 512.000000 512.000000"
 preserveAspectRatio="xMidYMid meet">

<g transform="translate(0.000000,512.000000) scale(0.100000,-0.100000)"
fill="#000000" stroke="none">
<path d="M1813 4872 c-64 -23 -125 -64 -164 -111 -61 -74 -78 -128 -114 -369
-19 -125 -35 -237 -35 -249 0 -23 1 -23 155 -23 85 0 155 4 155 9 0 5 14 100
30 212 21 139 36 209 47 221 15 17 55 18 673 18 618 0 658 -1 673 -18 11 -12
26 -82 47 -221 16 -112 30 -207 30 -212 0 -5 70 -9 155 -9 154 0 155 0 155 23
0 12 -16 124 -35 249 -39 260 -57 311 -137 391 -27 26 -74 60 -106 75 l-57 27
-710 2 c-663 2 -713 1 -762 -15z"/>
<path d="M127 3795 c-50 -17 -85 -50 -108 -100 -17 -37 -19 -75 -19 -526 0
-302 4 -508 11 -545 6 -32 28 -96 50 -141 71 -148 199 -251 365 -293 73 -19
113 -20 775 -20 l698 0 3 168 c3 189 9 205 84 242 39 19 59 20 574 20 515 0
535 -1 574 -20 75 -37 81 -53 84 -242 l3 -168 698 0 c662 0 702 1 775 20 166
42 294 145 365 293 22 45 44 109 50 141 7 37 11 243 11 545 0 450 -2 489 -19
526 -22 50 -69 91 -119 105 -25 7 -813 10 -2427 10 -1998 -1 -2396 -3 -2428
-15z"/>
<path d="M2210 2031 l0 -259 170 -91 c94 -50 175 -91 180 -91 5 0 86 41 180
91 l170 91 0 259 0 259 -350 0 -350 0 0 -259z"/>
<path d="M2 1207 l3 -853 27 -41 c16 -24 44 -49 71 -62 l44 -21 2425 2 2424 3
41 27 c24 16 49 44 62 71 21 43 21 45 19 885 l-3 842 -50 -36 c-70 -51 -196
-110 -290 -136 -79 -22 -90 -23 -817 -26 l-738 -3 0 -110 c0 -113 -9 -147 -46
-181 -11 -9 -138 -81 -284 -159 -356 -192 -304 -192 -660 0 -146 78 -273 150
-284 159 -37 34 -46 68 -46 181 l0 110 -737 3 c-729 3 -739 4 -818 26 -94 26
-210 79 -274 125 -25 18 -52 36 -59 41 -10 6 -12 -160 -10 -847z"/>
</g>
</svg>
