<?xml version="1.0" standalone="no"?>
<!DOCTYPE svg PUBLIC "-//W3C//DTD SVG 20010904//EN"
 "http://www.w3.org/TR/2001/REC-SVG-20010904/DTD/svg10.dtd">
<svg version="1.0" xmlns="http://www.w3.org/2000/svg"
 width="512.000000pt" height="512.000000pt" viewBox="0 0 512.000000 512.000000"
 preserveAspectRatio="xMidYMid meet">

<g transform="translate(0.000000,512.000000) scale(0.100000,-0.100000)"
fill="#000000" stroke="none">
<path d="M735 4786 c-37 -16 -70 -52 -84 -89 -8 -20 -11 -640 -11 -2042 l0
-2013 -109 -4 c-92 -2 -114 -6 -137 -24 -53 -39 -69 -71 -69 -134 0 -63 16
-95 69 -134 l27 -21 2138 0 2138 0 37 29 c90 68 86 190 -8 260 -23 18 -45 22
-137 24 l-109 4 -2 1548 c-3 1546 -3 1549 -24 1576 -11 15 -33 37 -48 48 -27
21 -38 21 -776 24 l-749 2 -3 429 c-3 416 -4 430 -24 457 -11 15 -33 37 -48
48 -27 21 -35 21 -1034 23 -824 2 -1012 0 -1037 -11z m1825 -2226 l0 -1920
-160 0 -159 0 -3 428 -3 429 -29 37 c-50 67 -54 67 -461 64 -349 -3 -365 -4
-391 -24 -15 -11 -37 -33 -48 -48 -20 -27 -21 -41 -24 -457 l-3 -429 -159 0
-160 0 0 1920 0 1920 800 0 800 0 0 -1920z m1600 -480 l0 -1440 -640 0 -640 0
0 1440 0 1440 640 0 640 0 0 -1440z m-2240 -1120 l0 -320 -160 0 -160 0 0 320
0 320 160 0 160 0 0 -320z"/>
<path d="M1375 4146 c-94 -41 -124 -168 -58 -247 49 -58 59 -59 444 -59 391 0
396 1 447 68 22 29 27 46 27 92 0 47 -5 63 -29 94 -49 65 -55 66 -448 66 -271
-1 -360 -4 -383 -14z"/>
<path d="M1375 3506 c-94 -41 -124 -168 -58 -247 49 -58 59 -59 444 -59 391 0
396 1 447 68 22 29 27 46 27 92 0 47 -5 63 -29 94 -49 65 -55 66 -448 66 -271
-1 -360 -4 -383 -14z"/>
<path d="M1375 2866 c-94 -41 -124 -168 -58 -247 49 -58 59 -59 444 -59 391 0
396 1 447 68 22 29 27 46 27 92 0 47 -5 63 -29 94 -49 65 -55 66 -448 66 -271
-1 -360 -4 -383 -14z"/>
<path d="M1375 2226 c-94 -41 -124 -168 -58 -247 49 -58 59 -59 444 -59 391 0
396 1 447 68 22 29 27 46 27 92 0 47 -5 63 -29 94 -49 65 -55 66 -448 66 -271
-1 -360 -4 -383 -14z"/>
<path d="M3295 3186 c-94 -41 -124 -168 -58 -247 45 -53 72 -59 284 -59 215 0
240 6 287 68 22 29 27 46 27 92 0 47 -5 63 -29 94 -46 61 -70 66 -288 66 -138
-1 -202 -5 -223 -14z"/>
<path d="M3295 2546 c-94 -41 -124 -168 -58 -247 45 -53 72 -59 284 -59 215 0
240 6 287 68 22 29 27 46 27 92 0 47 -5 63 -29 94 -46 61 -70 66 -288 66 -138
-1 -202 -5 -223 -14z"/>
<path d="M3295 1906 c-94 -41 -124 -168 -58 -247 45 -53 72 -59 284 -59 215 0
240 6 287 68 22 29 27 46 27 92 0 47 -5 63 -29 94 -46 61 -70 66 -288 66 -138
-1 -202 -5 -223 -14z"/>
<path d="M3295 1266 c-94 -41 -124 -168 -58 -247 45 -53 72 -59 284 -59 215 0
240 6 287 68 22 29 27 46 27 92 0 47 -5 63 -29 94 -46 61 -70 66 -288 66 -138
-1 -202 -5 -223 -14z"/>
</g>
</svg>
