<?xml version="1.0" encoding="utf-8"?>
<!-- Generator: Adobe Illustrator 23.0.1, SVG Export Plug-In . SVG Version: 6.00 Build 0)  -->
<svg version="1.1" id="Layer_1" xmlns="http://www.w3.org/2000/svg" xmlns:xlink="http://www.w3.org/1999/xlink" x="0px" y="0px"
	 viewBox="0 0 579.2 579.2" style="enable-background:new 0 0 579.2 579.2;" xml:space="preserve">
<style type="text/css">
	.st0{fill:#FFFFFF;}
</style>
<path class="st0" d="M289.6,435.2c-80.3,0-145.6-65.3-145.6-145.6S209.3,144,289.6,144s145.6,65.3,145.6,145.6
	S369.9,435.2,289.6,435.2z M289.6,145C209.9,145,145,209.9,145,289.6c0,79.7,64.9,144.6,144.6,144.6c79.7,0,144.6-64.9,144.6-144.6
	C434.2,209.9,369.4,145,289.6,145z"/>
<path class="st0" d="M289.6,470.5c-99.7,0-180.9-81.1-180.9-180.9s81.1-180.9,180.9-180.9s180.9,81.1,180.9,180.9
	S389.3,470.5,289.6,470.5z M289.6,109.8c-99.2,0-179.9,80.7-179.9,179.9c0,99.2,80.7,179.9,179.9,179.9
	c99.2,0,179.9-80.7,179.9-179.9C469.5,190.4,388.8,109.8,289.6,109.8z"/>
<path class="st0" d="M289.6,505.9c-57.8,0-112.1-22.5-152.9-63.3c-40.8-40.8-63.3-95.2-63.3-152.9s22.5-112.1,63.3-152.9
	c40.8-40.8,95.2-63.3,152.9-63.3s112.1,22.5,152.9,63.3c40.8,40.8,63.3,95.2,63.3,152.9s-22.5,112.1-63.3,152.9
	C401.7,483.4,347.4,505.9,289.6,505.9z M289.6,74.4c-118.7,0-215.3,96.6-215.3,215.3s96.6,215.3,215.3,215.3
	c118.7,0,215.3-96.6,215.3-215.3S408.3,74.4,289.6,74.4z"/>
<path class="st0" d="M289.6,543.5c-67.8,0-131.6-26.4-179.5-74.4c-48-48-74.4-111.7-74.4-179.5S62.1,158,110.1,110.1
	c48-48,111.7-74.4,179.5-74.4s131.6,26.4,179.5,74.4c48,48,74.4,111.7,74.4,179.5s-26.4,131.6-74.4,179.5S357.4,543.5,289.6,543.5z
	 M289.6,36.7c-139.5,0-252.9,113.5-252.9,252.9s113.5,252.9,252.9,252.9c139.5,0,252.9-113.5,252.9-252.9S429.1,36.7,289.6,36.7z"/>
<path class="st0" d="M289.6,579.2c-77.4,0-150.1-30.1-204.8-84.8C30.1,439.7,0,367,0,289.6c0-77.4,30.1-150.1,84.8-204.8
	C139.5,30.1,212.3,0,289.6,0C367,0,439.7,30.1,494.4,84.8s84.8,127.4,84.8,204.8c0,77.4-30.1,150.1-84.8,204.8
	C439.7,549.1,367,579.2,289.6,579.2z M289.6,1C130.5,1,1,130.5,1,289.6s129.5,288.6,288.6,288.6c159.1,0,288.6-129.5,288.6-288.6
	S448.8,1,289.6,1z"/>
</svg>
