<?xml version="1.0" standalone="no"?>
<!DOCTYPE svg PUBLIC "-//W3C//DTD SVG 20010904//EN"
 "http://www.w3.org/TR/2001/REC-SVG-20010904/DTD/svg10.dtd">
<svg version="1.0" xmlns="http://www.w3.org/2000/svg"
 width="512.000000pt" height="512.000000pt" viewBox="0 0 512.000000 512.000000"
 preserveAspectRatio="xMidYMid meet">
<metadata>
Created by potrace 1.16, written by Peter Selinger 2001-2019
</metadata>
<g transform="translate(0.000000,512.000000) scale(0.100000,-0.100000)"
fill="#000000" stroke="none">
<path d="M2327 5100 c-436 -92 -778 -435 -867 -868 -18 -89 -20 -137 -20 -434
0 -291 3 -344 20 -420 20 -92 68 -221 102 -276 11 -18 19 -34 17 -36 -2 -1
-44 -24 -93 -50 -500 -267 -886 -714 -1076 -1246 -82 -230 -130 -490 -130
-708 0 -132 12 -165 72 -202 47 -29 134 -27 178 3 60 40 70 70 80 234 10 150
25 256 55 373 87 345 266 660 516 907 173 171 309 269 522 375 l100 50 26 -21
c62 -49 192 -124 265 -152 157 -61 233 -71 496 -67 201 4 246 7 312 26 120 33
221 79 324 148 l95 64 112 -57 c214 -107 360 -216 538 -401 332 -345 508 -753
539 -1245 10 -164 20 -194 80 -234 44 -30 131 -32 178 -3 60 37 72 70 72 205
-1 273 -70 585 -194 865 -201 455 -568 849 -1011 1085 -49 27 -91 49 -92 50
-2 1 10 26 26 56 70 128 105 291 117 537 l7 143 57 44 c156 120 281 304 350
516 52 158 64 245 65 454 0 213 -6 236 -75 282 l-33 23 -821 -1 c-761 0 -827
-2 -909 -19z m1510 -397 c-13 -205 -84 -375 -215 -514 -117 -125 -234 -196
-397 -241 -78 -21 -94 -22 -774 -26 l-693 -3 7 88 c35 421 339 738 750 783 39
4 353 8 699 9 l629 1 -6 -97z m-477 -1081 c0 -59 -24 -193 -46 -253 -39 -109
-90 -187 -178 -274 -136 -135 -285 -197 -503 -210 -289 -18 -503 54 -664 222
-115 120 -187 273 -197 421 l-5 72 709 1 c640 1 717 2 789 18 44 10 83 19 88
20 4 0 7 -7 7 -17z"/>
<path d="M1473 2225 c-100 -31 -190 -112 -241 -215 l-27 -55 -3 -817 -2 -818
-148 0 c-129 0 -151 -2 -180 -20 -48 -30 -72 -75 -72 -140 0 -65 24 -110 72
-140 33 -20 54 -20 1688 -20 1634 0 1655 0 1688 20 48 30 72 75 72 140 0 65
-24 110 -72 140 -29 18 -51 20 -180 20 l-148 0 -2 818 -3 817 -29 60 c-38 77
-114 153 -191 191 l-60 29 -1060 2 c-861 1 -1068 -1 -1102 -12z m2067 -316
c62 -22 60 0 60 -834 l0 -755 -1040 0 -1040 0 0 754 c0 536 3 762 11 786 22
62 -20 59 1025 60 685 0 960 -3 984 -11z"/>
<path d="M2408 1581 c-145 -47 -269 -174 -312 -320 -21 -71 -21 -211 0 -282
43 -148 168 -274 315 -320 76 -24 214 -25 290 -3 147 43 268 161 318 311 26
76 28 215 6 289 -8 27 -15 50 -15 52 0 1 13 -4 30 -13 16 -8 53 -15 82 -15 98
0 158 61 158 160 0 100 -60 160 -160 160 -97 0 -160 -60 -160 -152 l0 -47 -46
49 c-98 105 -207 150 -357 149 -60 0 -112 -6 -149 -18z m230 -331 c130 -79 74
-280 -78 -280 -85 0 -150 65 -150 150 0 85 65 150 150 150 27 0 58 -8 78 -20z"/>
</g>
</svg>
