<?xml version="1.0" standalone="no"?>
<!DOCTYPE svg PUBLIC "-//W3C//DTD SVG 20010904//EN"
 "http://www.w3.org/TR/2001/REC-SVG-20010904/DTD/svg10.dtd">
<svg version="1.0" xmlns="http://www.w3.org/2000/svg"
 width="512.000000pt" height="512.000000pt" viewBox="0 0 512.000000 512.000000"
 preserveAspectRatio="xMidYMid meet">

<g transform="translate(0.000000,512.000000) scale(0.100000,-0.100000)"
fill="#000000" stroke="none">
<path d="M2920 5109 c-239 -28 -497 -139 -673 -292 -128 -110 -231 -272 -283
-442 l-27 -90 2 -442 3 -443 -302 0 c-307 0 -329 -2 -357 -39 -18 -24 -18
-909 1 -933 25 -34 64 -38 347 -38 l279 0 0 -1160 c0 -828 3 -1166 11 -1183 6
-14 22 -30 36 -36 16 -8 177 -11 518 -11 l494 0 28 24 28 24 3 1166 2 1166
326 0 c362 0 374 2 392 62 17 55 106 871 98 901 -13 54 -37 57 -446 57 l-370
0 0 293 c0 175 4 307 11 330 15 54 71 112 126 131 38 13 97 16 324 16 168 0
289 4 305 10 54 21 53 13 54 462 0 229 -3 424 -6 433 -17 43 -43 45 -456 44
-216 -1 -427 -5 -468 -10z"/>
</g>
</svg>
