<?xml version="1.0" encoding="UTF-8"?> <svg xmlns="http://www.w3.org/2000/svg" width="298" height="115" viewBox="0 0 298 115"><g><g><g><path fill="#37d531" d="M118.435 60.147l-5.816-.022.052-7.046 5.816.021zm122.629 0l-5.814-.022.049-7.046 5.811.021zM136.659 31.73c4.374 0 6.83-2.458 6.83-6.01 0-3.56-2.456-6.017-6.83-6.017-4.373 0-6.828 2.457-6.828 6.017 0 3.552 2.455 6.01 6.828 6.01m-5.013 13.84c-.904.632-1.909 1.604-1.909 3.304 0 2.487 2.819 3.732 7.714 3.732 5.733 0 9.134-1.427 9.134-3.97 0-1.888-1.702-3.066-4.371-3.066zm5.013-30.782c2.001 0 4.22.548 6.13 1.422 1.156-1.058 1.912-2.517 2.002-4.064a9.138 9.138 0 0 0-.39-3.704l5.46-.028c.398 1.217.398 2.428.398 3.58-.185 2.706-1.549 5.343-3.947 6.804 1.762 1.849 2.946 4.67 2.946 6.922 0 6.49-5.131 10.923-12.599 10.923-1.25 0-2.428-.125-3.554-.365-1.06.941-1.665 1.699-1.665 2.463 0 1.06 1.031 1.638 2.427 1.638h8.593c5.183 0 10.162 2.15 10.162 8.196 0 6.25-6.92 9.28-15.111 9.28-8.078 0-13.694-2.48-13.694-7.827 0-2.635 1.547-4.921 3.951-6.346-.979-.634-1.913-1.726-1.913-3.67 0-2.155 1.486-3.826 3.307-5.221-3.189-1.88-5.101-5.104-5.101-9.071 0-6.498 5.125-10.932 12.598-10.932m23.973 4.583c1.64-3.184 4.4-4.585 7.587-4.585 2.275 0 4.01.73 4.01.73l-.64 5.52c-.335-.117-1.639-.663-3.553-.663-3.217 0-7.404 1.699-7.404 8.285v15.877h-6.044V15.392h6.044zm34.682 7.984c-.393-4.22-3.433-7.07-8.23-7.07-4.792 0-8.37 2.85-8.83 7.07zm4.278 14.933c-3.368 1.91-7.04 2.85-11.104 2.85-9.808 0-16.576-6.191-16.576-15.176 0-8.676 6.286-15.174 14.997-15.174 9.469 0 15.57 7.891 13.838 17.362H178.07c1.067 4.762 4.767 7.412 10.42 7.412 3.392 0 6.312-.891 10.194-2.736zm26.641-14.933c-.395-4.22-3.426-7.07-8.223-7.07-4.8 0-8.377 2.85-8.83 7.07zm4.282 14.933c-3.37 1.91-7.046 2.85-11.108 2.85-9.804 0-16.574-6.191-16.574-15.176 0-8.676 6.286-15.174 14.991-15.174 9.475 0 15.579 7.891 13.844 17.362h-22.675c1.065 4.762 4.766 7.412 10.414 7.412 3.4 0 6.313-.891 10.195-2.736zm32.068-15.449v17.696h-6.016V28.118c0-4.827-2.635-7.629-7.158-7.629-4.435 0-8.045 2.802-8.045 7.63v16.416h-6.01V15.392h6.04v3.677c.973-1.488 3.735-4.283 8.956-4.283 8.012 0 12.233 4.98 12.233 12.053M145.391 75.652c-.396-4.219-3.428-7.067-8.225-7.067-4.8 0-8.376 2.848-8.833 7.067zm4.283 14.938c-3.376 1.905-7.046 2.854-11.111 2.854-9.805 0-16.573-6.198-16.573-15.18 0-8.684 6.286-15.178 14.994-15.178 9.474 0 15.574 7.888 13.84 17.365H128.15c1.063 4.763 4.767 7.408 10.412 7.408 3.4 0 6.316-.887 10.198-2.736zm10.963-40.49v35.385c0 1.761.97 2.676 2.493 2.676a10.14 10.14 0 0 0 3.368-.545l.486 5.007c-1.096.45-2.705.821-4.708.821-4.767 0-7.65-2.552-7.65-7.38V50.1zm14.754 0v35.385c0 1.761.975 2.676 2.488 2.676a10.17 10.17 0 0 0 3.376-.545l.484 5.007c-1.094.45-2.706.821-4.707.821-4.767 0-7.652-2.552-7.652-7.38V50.1zm28.648 13.592h6.618l-13.96 32.847c-2.337 5.402-4.858 9.046-11.961 9.046-2.58 0-4.308-.791-4.83-1.061l.642-4.983c.821.365 2.397.76 3.92.76 3.908 0 5.489-1.979 6.794-5.366l.64-1.678-12.567-29.565h6.616l9.077 22.95zm19.27 5.097v24.044h-6.004V68.789h-5.5v-5.097h5.584v-3.764c0-6.374 3.948-10.444 10.686-10.444 2.579 0 4.313.788 4.827 1.069l-.645 4.972c-.812-.359-2.387-.752-3.912-.752-3.486 0-5.13 1.698-5.13 5.493v3.426h8.596v5.097zm11.868-5.097h6.01v29.14h-6.01zm31.37.065l-.483 5.705c-1.67-.915-5.611-2.066-8.923-2.066-3.4 0-5.8.82-5.8 3.456 0 2.554 2.486 3.01 4.643 3.62l4.491 1.269c4.98 1.43 7.498 3.706 7.498 8.442 0 5.282-4.705 9.261-11.835 9.261-4.826 0-8.711-1.189-11.108-2.436l.484-5.46a23.067 23.067 0 0 0 10.104 2.37c3.47 0 6.195-1.066 6.195-3.587 0-1.942-1.428-2.758-4.128-3.515l-4.917-1.37c-3.798-1.06-7.592-3.037-7.592-8.103 0-5.924 4.192-9.474 11.807-9.474 4.224 0 7.2.823 9.565 1.888m31.296 11.378v17.698h-6.01V76.409c0-4.822-2.638-7.62-7.01-7.62-4.432 0-8.046 2.798-8.046 7.62v16.424h-6.009V50.099h6.044v17.268c.968-1.489 3.729-4.281 8.95-4.281 7.857 0 12.08 4.981 12.08 12.049M118.2 94.38c-.017 2.436-.08 4.698-1.446 6.826a9.57 9.57 0 0 1-3.383 3.177 9.467 9.467 0 0 1-4.604 1.202c-5.273-.026-9.515-4.305-9.493-9.544l.004-.744 5.847.028-.004.746a3.661 3.661 0 0 0 3.633 3.665 3.66 3.66 0 0 0 3.666-3.63l.006-.741.161-31.997h5.8z"></path></g><g><path fill="#37d531" d="M70.223 93.94c-4.67 0-8.471-3.797-8.471-8.469v-16.34h6.099v16.34a2.376 2.376 0 0 0 4.75 0v-.835H78.7v.835c0 4.672-3.804 8.47-8.477 8.47"></path></g><g><path fill="#37d531" d="M54.32 114.888c-4.672 0-8.476-3.802-8.476-8.477V46.203h6.099v60.208a2.38 2.38 0 0 0 2.376 2.378 2.38 2.38 0 0 0 2.378-2.378v-.827h6.099v.827c0 4.675-3.804 8.477-8.477 8.477"></path></g><g><path fill="#37d531" d="M79.807 40.214h-6.099c0-18.406-14.96-33.383-33.347-33.383-18.392 0-33.352 14.977-33.352 33.383H.911C.91 18.445 18.606.733 40.36.733c21.75 0 39.446 17.712 39.446 39.481"></path></g><g><path fill="#37d531" d="M61.752 57.669h6.099v7.059h-6.099z"></path></g><g><path fill="#37d531" d="M61.752 46.485h6.099v7.056h-6.099z"></path></g><g><path fill="#37d531" d="M45.845 32.093h6.099v7.06h-6.099z"></path></g><g><path fill="#37d531" d="M10.49 93.94c-4.673 0-8.476-3.797-8.476-8.469v-.835h6.098v.835a2.376 2.376 0 0 0 2.378 2.37 2.375 2.375 0 0 0 2.376-2.37v-16.34h6.099v16.34c0 4.672-3.803 8.47-8.475 8.47"></path></g><g><path fill="#37d531" d="M26.401 114.888c-4.673 0-8.478-3.802-8.478-8.477v-.827h6.098v.827a2.382 2.382 0 0 0 2.38 2.378 2.376 2.376 0 0 0 2.37-2.378V46.203h6.1v60.208c0 4.675-3.8 8.477-8.47 8.477"></path></g><g><path fill="#37d531" d="M12.865 57.669h6.1v7.059h-6.1z"></path></g><g><path fill="#37d531" d="M12.865 46.485h6.1v7.056h-6.1z"></path></g><g><path fill="#37d531" d="M28.77 32.093h6.099v7.06H28.77z"></path></g></g></g></svg> 