<?xml version="1.0" standalone="yes"?>
<svg xmlns="http://www.w3.org/2000/svg" width="512" height="512">
<path style="fill:#ffffff; stroke:none;" d="M0 0L0 237L1 237C5.01229 143.552 102.229 78.5815 190 91.5787C214.781 95.2483 238.233 105.154 259 119C265.41 123.273 276.363 128.427 279.258 136.001C282.022 143.233 276.687 149.244 271.996 154C262.544 163.582 252.513 172.491 243 182C238.881 186.118 234.282 192.049 228 192.566C218.112 193.379 205.866 180.306 197 176.312C179.721 168.528 160.018 168.264 142 173.427C127.981 177.445 115.04 185.316 105.09 196.001C73.0591 230.399 75.0209 292.212 112 322.535C151.295 354.758 218.67 346.5 240 297L183 297C174.716 297 165.095 298.449 159.434 290.981C153.583 283.263 157 265.326 157 256C157 248.062 154.457 234.797 159.653 228.185C166.626 219.312 184.994 223 195 223L285 223C294.639 223 311.501 219.635 318.775 227.189C325.82 234.504 325.051 248.741 324.17 258C322.293 277.722 323.116 295.622 317.28 315C312.086 332.246 303.981 348.631 293.102 363C221.485 457.589 64.0075 432.71 15.6921 328C8.00415 311.338 1.383 292.556 1 274L0 274L0 512L512 512L512 283L511 283C502.051 295.398 481.565 291 468 291C468 301.442 471.772 321.137 465.146 329.812C461.909 334.05 457.013 334.934 452 334.996C439.857 335.146 410.886 340.221 402.569 329.895C395.343 320.924 399 301.861 399 291C388.288 291 370.269 294.433 361.044 288.121C356.895 285.282 355.278 280.848 355.04 276C354.443 263.825 349.98 233.936 360.108 225.419C368.684 218.207 388.429 222 399 222C399 211.307 395.299 191.909 402.43 183.094C410.768 172.786 438.849 177.98 451 178C456.493 178.009 461.551 178.44 465.146 183.185C471.757 191.912 468 211.52 468 222C480.961 222 503.254 217.221 511 230L512 230L512 0L0 0z"/>
<path style="fill:#010101; stroke:none;" d="M240 297C232.497 309.257 224.328 320.863 212 328.76C171.59 354.648 116.122 340.168 93.1782 298C64.6799 245.624 99.0128 171.558 162 170.015C176.93 169.649 190.903 173.073 204 180.312C211.221 184.304 219.103 193.387 228 192.772C234.839 192.298 239.503 186.496 244 182C253.836 172.168 264.41 163.132 273.957 153C278.606 148.066 282.293 140.778 278.821 134.015C272.589 121.877 249.868 112.141 238 106.691C194.674 86.7972 142.244 82.2742 98 103.255C69.9079 116.577 45.7332 135.081 28.0285 161C-12.5841 220.457 -9.13008 304.757 35.5147 361C91.9154 432.053 207.938 444.086 276 382.829C312.631 349.861 329.441 295.455 324.83 247C324.078 239.1 323.538 227.365 314.996 223.858C305.683 220.035 290.017 223 280 223L198 223C188.263 223 169.129 219.353 161.214 225.804C156.504 229.642 157 235.52 157 241L157 278C157 283.723 156.348 289.549 161.109 293.697C168.343 299.999 184.056 297 193 297L240 297M399 222C388.58 222 368.844 218.23 360.108 224.703C349.699 232.417 354.944 262.33 355.001 274C355.026 279.267 355.449 284.769 360.108 288.121C369.186 294.652 388.309 291 399 291C399 301.728 395.363 320.767 401.879 329.895C405.558 335.049 411.29 334.998 417 335L451 335C456.104 334.992 461.604 334.978 465.146 330.66C471.986 322.32 468 301.287 468 291C478.652 291 497.904 294.687 506.956 288.297C512.338 284.498 512 278.904 512 273L512 239C511.998 233.757 512.156 228.477 507.671 224.854C499.228 218.036 478.363 222 468 222C468 211.637 471.964 190.772 465.146 182.329C461.523 177.844 456.243 178.002 451 178L417 178C411.186 178 405.469 177.779 401.728 183.094C395.341 192.167 399 211.374 399 222z"/>
</svg>
