<?xml version="1.0" standalone="no"?>
<!DOCTYPE svg PUBLIC "-//W3C//DTD SVG 20010904//EN"
 "http://www.w3.org/TR/2001/REC-SVG-20010904/DTD/svg10.dtd">
<svg version="1.0" xmlns="http://www.w3.org/2000/svg"
 width="512.000000pt" height="512.000000pt" viewBox="0 0 512.000000 512.000000"
 preserveAspectRatio="xMidYMid meet">

<g transform="translate(0.000000,512.000000) scale(0.100000,-0.100000)"
fill="#000000" stroke="none">
<path d="M2563 4900 c-294 -29 -555 -102 -818 -230 -228 -111 -411 -238 -582
-405 l-103 -100 0 -53 c0 -48 4 -58 34 -88 30 -30 40 -34 84 -34 43 0 57 5 99
39 26 21 59 51 73 66 88 97 313 251 499 344 297 146 582 211 931 211 814 0
1546 -470 1892 -1215 135 -290 191 -547 191 -875 0 -200 -16 -331 -59 -504
-92 -370 -282 -702 -555 -975 -326 -326 -739 -532 -1194 -596 -129 -18 -403
-21 -531 -5 -368 45 -722 189 -1018 413 -105 78 -315 289 -394 394 -271 359
-431 811 -432 1217 l0 80 118 -116 c132 -131 159 -144 227 -112 67 32 92 101
60 168 -9 18 -118 134 -243 258 -247 246 -262 256 -334 224 -18 -8 -138 -119
-267 -249 l-235 -236 0 -48 c-1 -60 22 -99 71 -120 67 -28 96 -13 224 114 133
130 129 131 129 -13 0 -103 23 -274 56 -420 189 -847 863 -1536 1709 -1749
212 -53 343 -69 575 -69 382 0 708 75 1039 240 702 347 1169 991 1288 1774 13
83 17 176 17 330 0 395 -72 706 -244 1050 -346 691 -995 1158 -1770 1274 -129
20 -413 28 -537 16z"/>
<path d="M2714 4011 c-61 -37 -64 -48 -64 -237 l0 -171 -87 -7 c-184 -15 -287
-59 -404 -176 -118 -116 -169 -240 -169 -408 0 -158 54 -286 170 -402 51 -51
96 -86 140 -107 116 -57 158 -63 431 -63 135 0 270 -5 299 -10 72 -14 131 -45
178 -94 64 -66 86 -118 90 -213 4 -71 1 -89 -23 -141 -46 -104 -138 -174 -251
-192 -33 -6 -233 -10 -445 -10 -377 0 -387 -1 -413 -21 -79 -62 -70 -171 17
-212 29 -14 70 -17 251 -17 l216 0 0 -180 0 -179 35 -36 c20 -19 46 -36 58
-37 68 -4 106 14 137 65 18 28 20 51 20 198 l0 166 98 6 c320 18 556 263 556
577 0 252 -145 454 -392 548 -65 25 -76 26 -372 32 -353 6 -369 10 -458 104
-63 66 -87 129 -87 226 0 126 62 226 178 288 l52 27 430 5 c471 5 454 3 496
67 36 54 15 133 -44 168 -29 18 -55 20 -244 23 l-213 3 0 162 c0 184 -9 216
-71 249 -43 23 -76 23 -115 -1z"/>
</g>
</svg>
