<?xml version="1.0" standalone="no"?>
<!DOCTYPE svg PUBLIC "-//W3C//DTD SVG 20010904//EN"
 "http://www.w3.org/TR/2001/REC-SVG-20010904/DTD/svg10.dtd">
<svg version="1.0" xmlns="http://www.w3.org/2000/svg"
 width="512.000000pt" height="512.000000pt" viewBox="0 0 512.000000 512.000000"
 preserveAspectRatio="xMidYMid meet">

<g transform="translate(0.000000,512.000000) scale(0.100000,-0.100000)"
fill="#000000" stroke="none">
<path d="M2330 4946 c-239 -32 -408 -83 -625 -192 -383 -191 -668 -475 -860
-859 -139 -279 -204 -554 -205 -860 0 -821 595 -1801 1635 -2690 262 -224 286
-229 456 -94 367 293 782 715 1057 1077 513 675 741 1312 682 1903 -59 578
-380 1103 -871 1422 -217 141 -459 234 -734 282 -125 22 -404 28 -535 11z
m533 -336 c642 -126 1139 -624 1269 -1273 19 -93 22 -144 22 -302 0 -166 -4
-206 -27 -316 -66 -314 -207 -630 -428 -962 -187 -280 -379 -508 -678 -807
-202 -202 -441 -420 -461 -420 -15 0 -253 212 -414 370 -646 631 -1031 1238
-1153 1817 -23 113 -27 151 -27 318 0 158 3 209 22 302 91 454 349 824 747
1073 172 107 418 192 639 220 115 14 366 4 489 -20z"/>
<path d="M2393 3985 c-201 -36 -365 -124 -513 -274 -129 -130 -212 -278 -257
-457 -24 -95 -24 -333 0 -428 45 -179 128 -327 257 -457 177 -180 385 -273
635 -286 278 -14 524 83 725 287 132 133 211 274 257 456 24 95 24 333 0 428
-25 99 -72 210 -125 296 -62 102 -206 243 -311 308 -196 120 -445 168 -668
127z m302 -320 c88 -18 215 -82 284 -142 230 -201 287 -540 134 -803 -49 -83
-150 -184 -233 -233 -314 -183 -726 -61 -888 263 -95 189 -95 390 -2 576 132
261 418 399 705 339z"/>
</g>
</svg>
