<?xml version="1.0" encoding="utf-8"?>
<!-- Generator: Adobe Illustrator 23.0.1, SVG Export Plug-In . SVG Version: 6.00 Build 0)  -->
<svg version="1.1" id="Layer_1" xmlns="http://www.w3.org/2000/svg" xmlns:xlink="http://www.w3.org/1999/xlink" x="0px" y="0px"
	 viewBox="0 0 530.1 595.1" style="enable-background:new 0 0 530.1 595.1;" xml:space="preserve">
<style type="text/css">
	.st0{fill:url(#SVGID_1_);}
</style>
<linearGradient id="SVGID_1_" gradientUnits="userSpaceOnUse" x1="267.5667" y1="595.0765" x2="267.5667" y2="13.8837">
	<stop  offset="0" style="stop-color:#34C636"/>
	<stop  offset="1" style="stop-color:#108AF9"/>
</linearGradient>
<path class="st0" d="M185.6,595.1c-12.6,0-25.5-2.2-38.6-6.6c-21.9-7.4-42.1-22.8-56.9-43.5c-14.6-20.4-23.5-45-24.9-69.4
	c-1.8-29.7,0.9-59.3,3.5-87.9c2.4-26-0.2-49.4-7.7-71.5c-8.1-23.6-20.6-45.5-32.6-65.9C11.5,222,4,194.8,5.1,167.2
	c0.7-16.8,5.4-31.3,14.3-44c11.8-16.9,29-28.6,54.1-36.6c25.4-8.1,51.2-9.7,75.3-10.1c17.3-0.3,32.8-5.5,46-15.4
	c4.4-3.3,8.7-7,12.8-10.6c3.7-3.2,7.5-6.5,11.4-9.5c1.8-1.4,3.6-2.8,5.3-4.2c7-5.6,14.3-11.4,22.3-15.6c25.6-13.4,54.5-8,73.8,13.8
	c11.1,12.6,18.8,27.4,22.6,43.9c4.9,20.8,9.3,41.7,13.1,59.5c6,28.3,21.7,47.4,48,58.3c6,2.5,12,5.1,17.8,7.7
	c4.7,2.1,9.5,4.2,14.3,6.2c3,1.3,6.1,2.5,9.2,3.8c12.9,5.3,26.3,10.7,38.1,19c23.6,16.4,38,36.3,44,60.6c0.7,3,1.3,6.1,1.9,9
	c0.3,1.4,0.5,2.8,0.8,4.1l0,0.2l0,15.2c-0.6,2.5-1.1,5-1.6,7.5c-1.1,5.4-2.3,11-4.1,16.3c-8.5,24.9-24.7,45.9-51.1,66.3
	c-18.5,14.3-38.9,24.4-58.2,33.2c-42.5,19.5-80.4,47-112.5,81.7c-14.3,15.4-28.7,28.8-42.8,39.9
	C236.3,585.8,211.5,595.1,185.6,595.1z M275.2,15.9c-9.3,0-18.7,2.3-27.7,7c-7.8,4.1-15,9.8-22,15.4c-1.8,1.4-3.6,2.8-5.4,4.2
	c-3.9,3-7.7,6.3-11.3,9.4c-4.2,3.6-8.4,7.3-12.9,10.7c-13.5,10.2-29.4,15.5-47.1,15.8c-23.9,0.4-49.5,1.9-74.7,10
	c-24.7,7.9-41.6,19.3-53.1,35.9c-8.7,12.5-13.2,26.5-13.9,43c-1.1,27.2,6.3,54,22.8,81.9c12.1,20.5,24.6,42.4,32.8,66.3
	c7.7,22.4,10.2,46.1,7.8,72.3c-2.6,28.5-5.3,58.1-3.5,87.6c3.1,50.5,36.2,96.2,80.5,111.1c39.2,13.2,76.5,6.3,110.9-20.7
	c14.1-11,28.4-24.4,42.6-39.7c32.3-34.9,70.4-62.5,113.2-82.1c19.2-8.8,39.5-18.9,57.8-33c26.1-20.1,42.1-40.9,50.5-65.4
	c1.8-5.2,2.9-10.7,4-16.1c0.5-2.4,1-4.9,1.6-7.4v-14.8c-0.3-1.4-0.5-2.7-0.8-4.1c-0.6-2.9-1.1-6-1.9-8.9
	c-5.9-23.8-20-43.3-43.2-59.4c-11.7-8.1-24.9-13.5-37.7-18.8c-3.1-1.3-6.1-2.5-9.2-3.8c-4.8-2-9.6-4.1-14.3-6.2
	c-5.8-2.6-11.8-5.2-17.8-7.7c-26.6-11-43.2-31.1-49.2-59.7c-3.7-17.7-8.2-38.6-13-59.4c-3.8-16.2-11.2-30.7-22.2-43.1
	C307,22.9,291.4,15.9,275.2,15.9z"/>
<path d="M523.1,292.3c0,5,0,10,0,15c-1.9,7.9-3.1,16-5.7,23.7c-9.4,27.7-28.1,48.3-50.8,65.9c-17.8,13.7-37.7,23.8-58,33.1
	c-43.2,19.8-80.6,47-112.9,81.9c-13.2,14.3-27.4,27.9-42.7,39.8c-33.3,26.2-71,34.6-111.8,20.8c-45.2-15.3-78.2-62.4-81.2-112
	c-1.8-29.5,0.9-58.6,3.5-87.8c2.2-24.5,0.2-48.5-7.8-71.9c-8-23.5-20.1-44.9-32.7-66.1c-15-25.4-24.2-52.4-23-82.5
	c0.7-15.9,5-30.5,14.1-43.5c13.2-19,32.2-29.4,53.6-36.2c24.4-7.8,49.6-9.6,75-10c17.2-0.3,32.9-5.3,46.6-15.6
	c8.4-6.3,15.9-13.7,24.2-20.1c8.9-6.9,17.6-14.5,27.5-19.7c24.8-13,53.1-8.4,72.5,13.6c11.2,12.7,18.6,27.2,22.4,43.5
	c4.6,19.8,8.9,39.6,13,59.5c5.9,28.2,21.9,48,48.6,59c10.8,4.5,21.3,9.3,32.1,13.9c16.1,6.8,32.6,12.6,47.1,22.7
	c21.5,15,37.2,34.1,43.6,60C521.5,283.5,522.2,287.9,523.1,292.3z"/>
</svg>
