<?xml version="1.0" encoding="utf-8"?>
<!-- Generator: Adobe Illustrator 23.0.1, SVG Export Plug-In . SVG Version: 6.00 Build 0)  -->
<svg version="1.1" id="Layer_1" xmlns="http://www.w3.org/2000/svg" xmlns:xlink="http://www.w3.org/1999/xlink" x="0px" y="0px"
	 viewBox="0 0 596.4 632.1" style="enable-background:new 0 0 596.4 632.1;" xml:space="preserve">
<style type="text/css">
	.st0{fill:url(#SVGID_1_);}
</style>
<linearGradient id="SVGID_1_" gradientUnits="userSpaceOnUse" x1="297.2345" y1="632.1201" x2="297.2345" y2="13.3556">
	<stop  offset="0" style="stop-color:#34C636"/>
	<stop  offset="1" style="stop-color:#108AF9"/>
</linearGradient>
<path class="st0" d="M447.5,115.6c-46.2-6.4-65.7-33.4-94.8-68.7C303-13.6,172.6,16.5,116.6,68c-42.8,39.4-70.2,60.5-100.4,110.1
	c-40.5,66.6,10.5,159,17.4,285.7c7.5,138.4,209.3,235.5,251.5,110.5c18-53.3,163.1-77.1,236.5-177.6
	C684.1,174.6,533.5,127.5,447.5,115.6z M575.5,301.7c-5.8,13.8-13.3,28.5-22.2,43.7c-9.3,15.9-20.5,32.8-33.3,50.2
	c-17.6,24.1-40.9,45.9-71.2,66.6c-26.4,18-54.5,32.8-79.3,45.7c-20.8,10.9-40.5,21.2-55.6,31.6c-17,11.7-26.7,22.6-30.6,34.2
	c-6.4,19-16.8,33.5-30.9,43.1c-6.5,4.5-13.9,7.8-21.8,10.1c-7.7,2.2-16,3.2-24.8,3.2c-8.9,0-18.2-1.1-27.8-3.3
	c-9.4-2.2-19-5.4-28.5-9.6c-9.5-4.2-18.9-9.3-27.9-15.3c-9.1-6-17.9-12.8-26.1-20.3c-8.3-7.6-16-15.9-22.9-24.6
	c-7.1-9-13.3-18.5-18.4-28.3c-11.1-21-17.3-42.8-18.5-64.9c-2.6-47.3-11.3-90.2-19.1-128c-3.7-17.9-7.1-34.7-9.6-50.7
	c-2.8-17.8-4.2-32.1-4.2-45c0-11.9,1.1-22.3,3.4-32.1c2.5-10.5,6.3-20,11.7-28.8c11.9-19.6,24.1-35.9,38.5-51.5
	c13.3-14.4,27.6-27.4,44.2-42.4c5.5-5,11.3-10.2,17.3-15.8c8.3-7.6,18.3-14.9,29.8-21.5c11.3-6.5,23.7-12.3,36.8-17.2
	c13.3-4.9,27-8.7,40.6-11.4c14.1-2.7,28-4.1,41.1-4.1c18.1,0,34.3,2.6,48.4,7.7c15.2,5.5,27.5,14,36.6,25.1l5,6.1
	c13.4,16.3,24.9,30.4,38.8,41.4c15.2,12.1,31.8,19,52.2,21.8c39,5.4,70.7,15.3,94.3,29.4c7.5,4.5,14.2,9.5,20,14.8
	c6.3,5.7,11.6,12,15.9,18.7c4.6,7.1,8.1,14.9,10.5,23.2c2.5,8.8,3.8,18.3,3.8,28.2c0,10-1.3,20.8-3.9,32.1
	C585.2,275.8,581,288.5,575.5,301.7z"/>
<path d="M285.3,561C243,686.1,41.3,589,33.7,450.5c-6.9-126.7-57.9-219.1-17.4-285.7c30.2-49.7,57.6-70.8,100.4-110.1
	C172.8,3.2,303.2-27,353,33.5c29,35.3,48.6,62.3,94.8,68.7c86,11.9,236.6,59,74.1,281.3C448.3,484,303.3,507.7,285.3,561L285.3,561z
	"/>
</svg>
