<?xml version="1.0" standalone="no"?>
<!DOCTYPE svg PUBLIC "-//W3C//DTD SVG 20010904//EN"
 "http://www.w3.org/TR/2001/REC-SVG-20010904/DTD/svg10.dtd">
<svg version="1.0" xmlns="http://www.w3.org/2000/svg"
 width="64.000000pt" height="64.000000pt" viewBox="0 0 64.000000 64.000000"
 preserveAspectRatio="xMidYMid meet">
<metadata>
Created by potrace 1.16, written by Peter Selinger 2001-2019
</metadata>
<g transform="translate(0.000000,64.000000) scale(0.100000,-0.100000)"
fill="#000000" stroke="none">
<path d="M192 617 c-65 -27 -132 -90 -164 -154 -19 -40 -23 -64 -23 -143 0
-111 19 -162 86 -229 67 -67 118 -86 229 -86 111 0 162 19 229 86 67 67 86
118 86 229 0 78 -4 103 -22 140 -24 48 -67 100 -84 100 -5 0 -30 -19 -55 -42
-30 -28 -44 -48 -42 -62 4 -31 36 -31 67 -2 31 30 35 28 66 -34 26 -50 24
-142 -5 -208 -58 -134 -220 -193 -354 -128 -133 65 -187 218 -122 350 48 99
128 147 245 150 66 1 76 4 79 20 6 28 -15 36 -93 35 -49 0 -86 -7 -123 -22z"/>
<path d="M302 538 c-8 -8 -12 -47 -12 -108 l0 -96 -50 -49 c-33 -33 -50 -57
-48 -70 6 -39 39 -29 99 31 l59 58 0 111 c0 102 -7 135 -30 135 -3 0 -11 -5
-18 -12z"/>
</g>
</svg>
