<?xml version="1.0" encoding="utf-8"?>
<!-- Generator: Adobe Illustrator 23.0.1, SVG Export Plug-In . SVG Version: 6.00 Build 0)  -->
<svg version="1.1" id="Layer_1" xmlns="http://www.w3.org/2000/svg" xmlns:xlink="http://www.w3.org/1999/xlink" x="0px" y="0px"
	 viewBox="0 0 123.1 267.4" style="enable-background:new 0 0 123.1 267.4;" xml:space="preserve">
<path d="M3.6,144.3c-2,0-3.6-1.6-3.6-3.6c0-2,1.6-3.6,3.6-3.6c2,0,3.6,1.6,3.6,3.6C7.3,142.7,5.7,144.3,3.6,144.3L3.6,144.3z
	 M3.6,158.1c-2,0-3.6-1.6-3.6-3.6c0-2,1.6-3.6,3.6-3.6c2,0,3.6,1.6,3.6,3.6C7.3,156.5,5.7,158.1,3.6,158.1L3.6,158.1z M3.6,172
	c-2,0-3.6-1.6-3.6-3.6c0-2,1.6-3.6,3.6-3.6c2,0,3.6,1.6,3.6,3.6C7.3,170.3,5.7,172,3.6,172L3.6,172z M3.6,185.1
	c-2,0-3.6-1.6-3.6-3.6c0-2,1.6-3.6,3.6-3.6c2,0,3.6,1.6,3.6,3.6C7.3,183.4,5.7,185.1,3.6,185.1L3.6,185.1z M3.6,198.9
	c-2,0-3.6-1.6-3.6-3.6c0-2,1.6-3.6,3.6-3.6c2,0,3.6,1.6,3.6,3.6C7.3,197.3,5.7,198.9,3.6,198.9L3.6,198.9z M3.6,212.8
	c-2,0-3.6-1.6-3.6-3.6c0-2,1.6-3.6,3.6-3.6c2,0,3.6,1.6,3.6,3.6C7.3,211.1,5.7,212.8,3.6,212.8L3.6,212.8z M3.6,226.6
	c-2,0-3.6-1.6-3.6-3.6s1.6-3.6,3.6-3.6c2,0,3.6,1.6,3.6,3.6S5.7,226.6,3.6,226.6L3.6,226.6z M3.6,239.7c-2,0-3.6-1.6-3.6-3.6
	s1.6-3.6,3.6-3.6c2,0,3.6,1.6,3.6,3.6S5.7,239.7,3.6,239.7L3.6,239.7z M3.6,253.6c-2,0-3.6-1.6-3.6-3.6c0-2,1.6-3.6,3.6-3.6
	c2,0,3.6,1.6,3.6,3.6C7.3,251.9,5.7,253.6,3.6,253.6L3.6,253.6z M3.6,267.4c-2,0-3.6-1.6-3.6-3.6c0-2,1.6-3.6,3.6-3.6
	c2,0,3.6,1.6,3.6,3.6C7.3,265.8,5.7,267.4,3.6,267.4L3.6,267.4z M16.8,144.3c-2,0-3.6-1.6-3.6-3.6c0-2,1.6-3.6,3.6-3.6
	s3.6,1.6,3.6,3.6C20.4,142.7,18.8,144.3,16.8,144.3L16.8,144.3z M16.8,158.1c-2,0-3.6-1.6-3.6-3.6c0-2,1.6-3.6,3.6-3.6
	s3.6,1.6,3.6,3.6C20.4,156.5,18.8,158.1,16.8,158.1L16.8,158.1z M16.8,172c-2,0-3.6-1.6-3.6-3.6c0-2,1.6-3.6,3.6-3.6
	s3.6,1.6,3.6,3.6C20.4,170.3,18.8,172,16.8,172L16.8,172z M16.8,185.1c-2,0-3.6-1.6-3.6-3.6c0-2,1.6-3.6,3.6-3.6s3.6,1.6,3.6,3.6
	C20.4,183.4,18.8,185.1,16.8,185.1L16.8,185.1z M16.8,198.9c-2,0-3.6-1.6-3.6-3.6c0-2,1.6-3.6,3.6-3.6s3.6,1.6,3.6,3.6
	C20.4,197.3,18.8,198.9,16.8,198.9L16.8,198.9z M16.8,212.8c-2,0-3.6-1.6-3.6-3.6c0-2,1.6-3.6,3.6-3.6s3.6,1.6,3.6,3.6
	C20.4,211.1,18.8,212.8,16.8,212.8L16.8,212.8z M16.8,226.6c-2,0-3.6-1.6-3.6-3.6s1.6-3.6,3.6-3.6s3.6,1.6,3.6,3.6
	S18.8,226.6,16.8,226.6L16.8,226.6z M16.8,239.7c-2,0-3.6-1.6-3.6-3.6s1.6-3.6,3.6-3.6s3.6,1.6,3.6,3.6S18.8,239.7,16.8,239.7
	L16.8,239.7z M16.8,253.6c-2,0-3.6-1.6-3.6-3.6c0-2,1.6-3.6,3.6-3.6s3.6,1.6,3.6,3.6C20.4,251.9,18.8,253.6,16.8,253.6L16.8,253.6z
	 M16.8,267.4c-2,0-3.6-1.6-3.6-3.6c0-2,1.6-3.6,3.6-3.6s3.6,1.6,3.6,3.6C20.4,265.8,18.8,267.4,16.8,267.4L16.8,267.4z M29.1,144.3
	c-2,0-3.6-1.6-3.6-3.6c0-2,1.6-3.6,3.6-3.6s3.6,1.6,3.6,3.6C32.8,142.7,31.1,144.3,29.1,144.3L29.1,144.3z M29.1,158.1
	c-2,0-3.6-1.6-3.6-3.6c0-2,1.6-3.6,3.6-3.6s3.6,1.6,3.6,3.6C32.8,156.5,31.1,158.1,29.1,158.1L29.1,158.1z M29.1,172
	c-2,0-3.6-1.6-3.6-3.6c0-2,1.6-3.6,3.6-3.6s3.6,1.6,3.6,3.6C32.8,170.3,31.1,172,29.1,172L29.1,172z M29.1,185.1
	c-2,0-3.6-1.6-3.6-3.6c0-2,1.6-3.6,3.6-3.6s3.6,1.6,3.6,3.6C32.8,183.4,31.1,185.1,29.1,185.1L29.1,185.1z M29.1,198.9
	c-2,0-3.6-1.6-3.6-3.6c0-2,1.6-3.6,3.6-3.6s3.6,1.6,3.6,3.6C32.8,197.3,31.1,198.9,29.1,198.9L29.1,198.9z M29.1,212.8
	c-2,0-3.6-1.6-3.6-3.6c0-2,1.6-3.6,3.6-3.6s3.6,1.6,3.6,3.6C32.8,211.1,31.1,212.8,29.1,212.8L29.1,212.8z M29.1,226.6
	c-2,0-3.6-1.6-3.6-3.6s1.6-3.6,3.6-3.6s3.6,1.6,3.6,3.6S31.1,226.6,29.1,226.6L29.1,226.6z M29.1,239.7c-2,0-3.6-1.6-3.6-3.6
	s1.6-3.6,3.6-3.6s3.6,1.6,3.6,3.6S31.1,239.7,29.1,239.7L29.1,239.7z M29.1,253.6c-2,0-3.6-1.6-3.6-3.6c0-2,1.6-3.6,3.6-3.6
	s3.6,1.6,3.6,3.6C32.8,251.9,31.1,253.6,29.1,253.6L29.1,253.6z M29.1,267.4c-2,0-3.6-1.6-3.6-3.6c0-2,1.6-3.6,3.6-3.6
	s3.6,1.6,3.6,3.6C32.8,265.8,31.1,267.4,29.1,267.4L29.1,267.4z M42.3,144.3c-2,0-3.6-1.6-3.6-3.6c0-2,1.6-3.6,3.6-3.6
	c2,0,3.6,1.6,3.6,3.6C45.9,142.7,44.3,144.3,42.3,144.3L42.3,144.3z M42.3,158.1c-2,0-3.6-1.6-3.6-3.6c0-2,1.6-3.6,3.6-3.6
	c2,0,3.6,1.6,3.6,3.6C45.9,156.5,44.3,158.1,42.3,158.1L42.3,158.1z M42.3,172c-2,0-3.6-1.6-3.6-3.6c0-2,1.6-3.6,3.6-3.6
	c2,0,3.6,1.6,3.6,3.6C45.9,170.3,44.3,172,42.3,172L42.3,172z M42.3,185.1c-2,0-3.6-1.6-3.6-3.6c0-2,1.6-3.6,3.6-3.6
	c2,0,3.6,1.6,3.6,3.6C45.9,183.4,44.3,185.1,42.3,185.1L42.3,185.1z M42.3,198.9c-2,0-3.6-1.6-3.6-3.6c0-2,1.6-3.6,3.6-3.6
	c2,0,3.6,1.6,3.6,3.6C45.9,197.3,44.3,198.9,42.3,198.9L42.3,198.9z M42.3,212.8c-2,0-3.6-1.6-3.6-3.6c0-2,1.6-3.6,3.6-3.6
	c2,0,3.6,1.6,3.6,3.6C45.9,211.1,44.3,212.8,42.3,212.8L42.3,212.8z M42.3,226.6c-2,0-3.6-1.6-3.6-3.6s1.6-3.6,3.6-3.6
	c2,0,3.6,1.6,3.6,3.6S44.3,226.6,42.3,226.6L42.3,226.6z M42.3,239.7c-2,0-3.6-1.6-3.6-3.6s1.6-3.6,3.6-3.6c2,0,3.6,1.6,3.6,3.6
	S44.3,239.7,42.3,239.7L42.3,239.7z M42.3,253.6c-2,0-3.6-1.6-3.6-3.6c0-2,1.6-3.6,3.6-3.6c2,0,3.6,1.6,3.6,3.6
	C45.9,251.9,44.3,253.6,42.3,253.6L42.3,253.6z M42.3,267.4c-2,0-3.6-1.6-3.6-3.6c0-2,1.6-3.6,3.6-3.6c2,0,3.6,1.6,3.6,3.6
	C45.9,265.8,44.3,267.4,42.3,267.4L42.3,267.4z M55.4,144.3c-2,0-3.6-1.6-3.6-3.6c0-2,1.6-3.6,3.6-3.6c2,0,3.6,1.6,3.6,3.6
	C59,142.7,57.4,144.3,55.4,144.3L55.4,144.3z M55.4,158.1c-2,0-3.6-1.6-3.6-3.6c0-2,1.6-3.6,3.6-3.6c2,0,3.6,1.6,3.6,3.6
	C59,156.5,57.4,158.1,55.4,158.1L55.4,158.1z M55.4,172c-2,0-3.6-1.6-3.6-3.6c0-2,1.6-3.6,3.6-3.6c2,0,3.6,1.6,3.6,3.6
	C59,170.3,57.4,172,55.4,172L55.4,172z M55.4,185.1c-2,0-3.6-1.6-3.6-3.6c0-2,1.6-3.6,3.6-3.6c2,0,3.6,1.6,3.6,3.6
	C59,183.4,57.4,185.1,55.4,185.1L55.4,185.1z M55.4,198.9c-2,0-3.6-1.6-3.6-3.6c0-2,1.6-3.6,3.6-3.6c2,0,3.6,1.6,3.6,3.6
	C59,197.3,57.4,198.9,55.4,198.9L55.4,198.9z M55.4,212.8c-2,0-3.6-1.6-3.6-3.6c0-2,1.6-3.6,3.6-3.6c2,0,3.6,1.6,3.6,3.6
	C59,211.1,57.4,212.8,55.4,212.8L55.4,212.8z M55.4,226.6c-2,0-3.6-1.6-3.6-3.6s1.6-3.6,3.6-3.6c2,0,3.6,1.6,3.6,3.6
	S57.4,226.6,55.4,226.6L55.4,226.6z M55.4,239.7c-2,0-3.6-1.6-3.6-3.6s1.6-3.6,3.6-3.6c2,0,3.6,1.6,3.6,3.6S57.4,239.7,55.4,239.7
	L55.4,239.7z M55.4,253.6c-2,0-3.6-1.6-3.6-3.6c0-2,1.6-3.6,3.6-3.6c2,0,3.6,1.6,3.6,3.6C59,251.9,57.4,253.6,55.4,253.6L55.4,253.6
	z M55.4,267.4c-2,0-3.6-1.6-3.6-3.6c0-2,1.6-3.6,3.6-3.6c2,0,3.6,1.6,3.6,3.6C59,265.8,57.4,267.4,55.4,267.4L55.4,267.4z
	 M67.7,144.3c-2,0-3.6-1.6-3.6-3.6c0-2,1.6-3.6,3.6-3.6c2,0,3.6,1.6,3.6,3.6C71.4,142.7,69.8,144.3,67.7,144.3L67.7,144.3z
	 M67.7,158.1c-2,0-3.6-1.6-3.6-3.6c0-2,1.6-3.6,3.6-3.6c2,0,3.6,1.6,3.6,3.6C71.4,156.5,69.8,158.1,67.7,158.1L67.7,158.1z
	 M67.7,172c-2,0-3.6-1.6-3.6-3.6c0-2,1.6-3.6,3.6-3.6c2,0,3.6,1.6,3.6,3.6C71.4,170.3,69.8,172,67.7,172L67.7,172z M67.7,185.1
	c-2,0-3.6-1.6-3.6-3.6c0-2,1.6-3.6,3.6-3.6c2,0,3.6,1.6,3.6,3.6C71.4,183.4,69.8,185.1,67.7,185.1L67.7,185.1z M67.7,198.9
	c-2,0-3.6-1.6-3.6-3.6c0-2,1.6-3.6,3.6-3.6c2,0,3.6,1.6,3.6,3.6C71.4,197.3,69.8,198.9,67.7,198.9L67.7,198.9z M67.7,212.8
	c-2,0-3.6-1.6-3.6-3.6c0-2,1.6-3.6,3.6-3.6c2,0,3.6,1.6,3.6,3.6C71.4,211.1,69.8,212.8,67.7,212.8L67.7,212.8z M67.7,226.6
	c-2,0-3.6-1.6-3.6-3.6s1.6-3.6,3.6-3.6c2,0,3.6,1.6,3.6,3.6S69.8,226.6,67.7,226.6L67.7,226.6z M67.7,239.7c-2,0-3.6-1.6-3.6-3.6
	s1.6-3.6,3.6-3.6c2,0,3.6,1.6,3.6,3.6S69.8,239.7,67.7,239.7L67.7,239.7z M67.7,253.6c-2,0-3.6-1.6-3.6-3.6c0-2,1.6-3.6,3.6-3.6
	c2,0,3.6,1.6,3.6,3.6C71.4,251.9,69.8,253.6,67.7,253.6L67.7,253.6z M67.7,267.4c-2,0-3.6-1.6-3.6-3.6c0-2,1.6-3.6,3.6-3.6
	c2,0,3.6,1.6,3.6,3.6C71.4,265.8,69.8,267.4,67.7,267.4L67.7,267.4z M80.9,144.3c-2,0-3.6-1.6-3.6-3.6c0-2,1.6-3.6,3.6-3.6
	c2,0,3.6,1.6,3.6,3.6C84.5,142.7,82.9,144.3,80.9,144.3L80.9,144.3z M80.9,158.1c-2,0-3.6-1.6-3.6-3.6c0-2,1.6-3.6,3.6-3.6
	c2,0,3.6,1.6,3.6,3.6C84.5,156.5,82.9,158.1,80.9,158.1L80.9,158.1z M80.9,172c-2,0-3.6-1.6-3.6-3.6c0-2,1.6-3.6,3.6-3.6
	c2,0,3.6,1.6,3.6,3.6C84.5,170.3,82.9,172,80.9,172L80.9,172z M80.9,185.1c-2,0-3.6-1.6-3.6-3.6c0-2,1.6-3.6,3.6-3.6
	c2,0,3.6,1.6,3.6,3.6C84.5,183.4,82.9,185.1,80.9,185.1L80.9,185.1z M80.9,198.9c-2,0-3.6-1.6-3.6-3.6c0-2,1.6-3.6,3.6-3.6
	c2,0,3.6,1.6,3.6,3.6C84.5,197.3,82.9,198.9,80.9,198.9L80.9,198.9z M80.9,212.8c-2,0-3.6-1.6-3.6-3.6c0-2,1.6-3.6,3.6-3.6
	c2,0,3.6,1.6,3.6,3.6C84.5,211.1,82.9,212.8,80.9,212.8L80.9,212.8z M80.9,226.6c-2,0-3.6-1.6-3.6-3.6s1.6-3.6,3.6-3.6
	c2,0,3.6,1.6,3.6,3.6S82.9,226.6,80.9,226.6L80.9,226.6z M80.9,239.7c-2,0-3.6-1.6-3.6-3.6s1.6-3.6,3.6-3.6c2,0,3.6,1.6,3.6,3.6
	S82.9,239.7,80.9,239.7L80.9,239.7z M80.9,253.6c-2,0-3.6-1.6-3.6-3.6c0-2,1.6-3.6,3.6-3.6c2,0,3.6,1.6,3.6,3.6
	C84.5,251.9,82.9,253.6,80.9,253.6L80.9,253.6z M80.9,267.4c-2,0-3.6-1.6-3.6-3.6c0-2,1.6-3.6,3.6-3.6c2,0,3.6,1.6,3.6,3.6
	C84.5,265.8,82.9,267.4,80.9,267.4L80.9,267.4z M94,144.3c-2,0-3.6-1.6-3.6-3.6c0-2,1.6-3.6,3.6-3.6c2,0,3.6,1.6,3.6,3.6
	C97.6,142.7,96,144.3,94,144.3L94,144.3z M94,158.1c-2,0-3.6-1.6-3.6-3.6c0-2,1.6-3.6,3.6-3.6c2,0,3.6,1.6,3.6,3.6
	C97.6,156.5,96,158.1,94,158.1L94,158.1z M94,172c-2,0-3.6-1.6-3.6-3.6c0-2,1.6-3.6,3.6-3.6c2,0,3.6,1.6,3.6,3.6
	C97.6,170.3,96,172,94,172L94,172z M94,185.1c-2,0-3.6-1.6-3.6-3.6c0-2,1.6-3.6,3.6-3.6c2,0,3.6,1.6,3.6,3.6
	C97.6,183.4,96,185.1,94,185.1L94,185.1z M94,198.9c-2,0-3.6-1.6-3.6-3.6c0-2,1.6-3.6,3.6-3.6c2,0,3.6,1.6,3.6,3.6
	C97.6,197.3,96,198.9,94,198.9L94,198.9z M94,212.8c-2,0-3.6-1.6-3.6-3.6c0-2,1.6-3.6,3.6-3.6c2,0,3.6,1.6,3.6,3.6
	C97.6,211.1,96,212.8,94,212.8L94,212.8z M94,226.6c-2,0-3.6-1.6-3.6-3.6s1.6-3.6,3.6-3.6c2,0,3.6,1.6,3.6,3.6S96,226.6,94,226.6
	L94,226.6z M94,239.7c-2,0-3.6-1.6-3.6-3.6s1.6-3.6,3.6-3.6c2,0,3.6,1.6,3.6,3.6S96,239.7,94,239.7L94,239.7z M94,253.6
	c-2,0-3.6-1.6-3.6-3.6c0-2,1.6-3.6,3.6-3.6c2,0,3.6,1.6,3.6,3.6C97.6,251.9,96,253.6,94,253.6L94,253.6z M94,267.4
	c-2,0-3.6-1.6-3.6-3.6c0-2,1.6-3.6,3.6-3.6c2,0,3.6,1.6,3.6,3.6C97.6,265.8,96,267.4,94,267.4L94,267.4z M106.4,144.3
	c-2,0-3.6-1.6-3.6-3.6c0-2,1.6-3.6,3.6-3.6c2,0,3.6,1.6,3.6,3.6C110,142.7,108.4,144.3,106.4,144.3L106.4,144.3z M106.4,158.1
	c-2,0-3.6-1.6-3.6-3.6c0-2,1.6-3.6,3.6-3.6c2,0,3.6,1.6,3.6,3.6C110,156.5,108.4,158.1,106.4,158.1L106.4,158.1z M106.4,172
	c-2,0-3.6-1.6-3.6-3.6c0-2,1.6-3.6,3.6-3.6c2,0,3.6,1.6,3.6,3.6C110,170.3,108.4,172,106.4,172L106.4,172z M106.4,185.1
	c-2,0-3.6-1.6-3.6-3.6c0-2,1.6-3.6,3.6-3.6c2,0,3.6,1.6,3.6,3.6C110,183.4,108.4,185.1,106.4,185.1L106.4,185.1z M106.4,198.9
	c-2,0-3.6-1.6-3.6-3.6c0-2,1.6-3.6,3.6-3.6c2,0,3.6,1.6,3.6,3.6C110,197.3,108.4,198.9,106.4,198.9L106.4,198.9z M106.4,212.8
	c-2,0-3.6-1.6-3.6-3.6c0-2,1.6-3.6,3.6-3.6c2,0,3.6,1.6,3.6,3.6C110,211.1,108.4,212.8,106.4,212.8L106.4,212.8z M106.4,226.6
	c-2,0-3.6-1.6-3.6-3.6s1.6-3.6,3.6-3.6c2,0,3.6,1.6,3.6,3.6S108.4,226.6,106.4,226.6L106.4,226.6z M106.4,239.7
	c-2,0-3.6-1.6-3.6-3.6s1.6-3.6,3.6-3.6c2,0,3.6,1.6,3.6,3.6S108.4,239.7,106.4,239.7L106.4,239.7z M106.4,253.6
	c-2,0-3.6-1.6-3.6-3.6c0-2,1.6-3.6,3.6-3.6c2,0,3.6,1.6,3.6,3.6C110,251.9,108.4,253.6,106.4,253.6L106.4,253.6z M106.4,267.4
	c-2,0-3.6-1.6-3.6-3.6c0-2,1.6-3.6,3.6-3.6c2,0,3.6,1.6,3.6,3.6C110,265.8,108.4,267.4,106.4,267.4L106.4,267.4z M119.5,144.3
	c-2,0-3.6-1.6-3.6-3.6c0-2,1.6-3.6,3.6-3.6c2,0,3.6,1.6,3.6,3.6C123.1,142.7,121.5,144.3,119.5,144.3L119.5,144.3z M119.5,158.1
	c-2,0-3.6-1.6-3.6-3.6c0-2,1.6-3.6,3.6-3.6c2,0,3.6,1.6,3.6,3.6C123.1,156.5,121.5,158.1,119.5,158.1L119.5,158.1z M119.5,172
	c-2,0-3.6-1.6-3.6-3.6c0-2,1.6-3.6,3.6-3.6c2,0,3.6,1.6,3.6,3.6C123.1,170.3,121.5,172,119.5,172L119.5,172z M119.5,185.1
	c-2,0-3.6-1.6-3.6-3.6c0-2,1.6-3.6,3.6-3.6c2,0,3.6,1.6,3.6,3.6C123.1,183.4,121.5,185.1,119.5,185.1L119.5,185.1z M119.5,198.9
	c-2,0-3.6-1.6-3.6-3.6c0-2,1.6-3.6,3.6-3.6c2,0,3.6,1.6,3.6,3.6C123.1,197.3,121.5,198.9,119.5,198.9L119.5,198.9z M119.5,212.8
	c-2,0-3.6-1.6-3.6-3.6c0-2,1.6-3.6,3.6-3.6c2,0,3.6,1.6,3.6,3.6C123.1,211.1,121.5,212.8,119.5,212.8L119.5,212.8z M119.5,226.6
	c-2,0-3.6-1.6-3.6-3.6s1.6-3.6,3.6-3.6c2,0,3.6,1.6,3.6,3.6S121.5,226.6,119.5,226.6L119.5,226.6z M119.5,239.7
	c-2,0-3.6-1.6-3.6-3.6s1.6-3.6,3.6-3.6c2,0,3.6,1.6,3.6,3.6S121.5,239.7,119.5,239.7L119.5,239.7z M119.5,253.6
	c-2,0-3.6-1.6-3.6-3.6c0-2,1.6-3.6,3.6-3.6c2,0,3.6,1.6,3.6,3.6C123.1,251.9,121.5,253.6,119.5,253.6L119.5,253.6z M119.5,267.4
	c-2,0-3.6-1.6-3.6-3.6c0-2,1.6-3.6,3.6-3.6c2,0,3.6,1.6,3.6,3.6C123.1,265.8,121.5,267.4,119.5,267.4L119.5,267.4z M3.6,7.3
	C1.6,7.3,0,5.7,0,3.6C0,1.6,1.6,0,3.6,0c2,0,3.6,1.6,3.6,3.6C7.3,5.7,5.7,7.3,3.6,7.3L3.6,7.3z M3.6,21.1c-2,0-3.6-1.6-3.6-3.6
	c0-2,1.6-3.6,3.6-3.6c2,0,3.6,1.6,3.6,3.6C7.3,19.5,5.7,21.1,3.6,21.1L3.6,21.1z M3.6,35c-2,0-3.6-1.6-3.6-3.6c0-2,1.6-3.6,3.6-3.6
	c2,0,3.6,1.6,3.6,3.6C7.3,33.3,5.7,35,3.6,35L3.6,35z M3.6,48.1c-2,0-3.6-1.6-3.6-3.6c0-2,1.6-3.6,3.6-3.6c2,0,3.6,1.6,3.6,3.6
	C7.3,46.4,5.7,48.1,3.6,48.1L3.6,48.1z M3.6,61.9c-2,0-3.6-1.6-3.6-3.6c0-2,1.6-3.6,3.6-3.6c2,0,3.6,1.6,3.6,3.6
	C7.3,60.3,5.7,61.9,3.6,61.9L3.6,61.9z M3.6,75.8c-2,0-3.6-1.6-3.6-3.6c0-2,1.6-3.6,3.6-3.6c2,0,3.6,1.6,3.6,3.6
	C7.3,74.1,5.7,75.8,3.6,75.8L3.6,75.8z M3.6,89.6C1.6,89.6,0,88,0,86c0-2,1.6-3.6,3.6-3.6c2,0,3.6,1.6,3.6,3.6
	C7.3,88,5.7,89.6,3.6,89.6L3.6,89.6z M3.6,102.7c-2,0-3.6-1.6-3.6-3.6c0-2,1.6-3.6,3.6-3.6c2,0,3.6,1.6,3.6,3.6
	C7.3,101.1,5.7,102.7,3.6,102.7L3.6,102.7z M3.6,116.6c-2,0-3.6-1.6-3.6-3.6c0-2,1.6-3.6,3.6-3.6c2,0,3.6,1.6,3.6,3.6
	C7.3,114.9,5.7,116.6,3.6,116.6L3.6,116.6z M3.6,130.4c-2,0-3.6-1.6-3.6-3.6c0-2,1.6-3.6,3.6-3.6c2,0,3.6,1.6,3.6,3.6
	C7.3,128.8,5.7,130.4,3.6,130.4L3.6,130.4z M16.8,7.3c-2,0-3.6-1.6-3.6-3.6c0-2,1.6-3.6,3.6-3.6s3.6,1.6,3.6,3.6
	C20.4,5.7,18.8,7.3,16.8,7.3L16.8,7.3z M16.8,21.1c-2,0-3.6-1.6-3.6-3.6c0-2,1.6-3.6,3.6-3.6s3.6,1.6,3.6,3.6
	C20.4,19.5,18.8,21.1,16.8,21.1L16.8,21.1z M16.8,35c-2,0-3.6-1.6-3.6-3.6c0-2,1.6-3.6,3.6-3.6s3.6,1.6,3.6,3.6
	C20.4,33.3,18.8,35,16.8,35L16.8,35z M16.8,48.1c-2,0-3.6-1.6-3.6-3.6c0-2,1.6-3.6,3.6-3.6s3.6,1.6,3.6,3.6
	C20.4,46.4,18.8,48.1,16.8,48.1L16.8,48.1z M16.8,61.9c-2,0-3.6-1.6-3.6-3.6c0-2,1.6-3.6,3.6-3.6s3.6,1.6,3.6,3.6
	C20.4,60.3,18.8,61.9,16.8,61.9L16.8,61.9z M16.8,75.8c-2,0-3.6-1.6-3.6-3.6c0-2,1.6-3.6,3.6-3.6s3.6,1.6,3.6,3.6
	C20.4,74.1,18.8,75.8,16.8,75.8L16.8,75.8z M16.8,89.6c-2,0-3.6-1.6-3.6-3.6c0-2,1.6-3.6,3.6-3.6s3.6,1.6,3.6,3.6
	C20.4,88,18.8,89.6,16.8,89.6L16.8,89.6z M16.8,102.7c-2,0-3.6-1.6-3.6-3.6c0-2,1.6-3.6,3.6-3.6s3.6,1.6,3.6,3.6
	C20.4,101.1,18.8,102.7,16.8,102.7L16.8,102.7z M16.8,116.6c-2,0-3.6-1.6-3.6-3.6c0-2,1.6-3.6,3.6-3.6s3.6,1.6,3.6,3.6
	C20.4,114.9,18.8,116.6,16.8,116.6L16.8,116.6z M16.8,130.4c-2,0-3.6-1.6-3.6-3.6c0-2,1.6-3.6,3.6-3.6s3.6,1.6,3.6,3.6
	C20.4,128.8,18.8,130.4,16.8,130.4L16.8,130.4z M29.1,7.3c-2,0-3.6-1.6-3.6-3.6c0-2,1.6-3.6,3.6-3.6s3.6,1.6,3.6,3.6
	C32.8,5.7,31.1,7.3,29.1,7.3L29.1,7.3z M29.1,21.1c-2,0-3.6-1.6-3.6-3.6c0-2,1.6-3.6,3.6-3.6s3.6,1.6,3.6,3.6
	C32.8,19.5,31.1,21.1,29.1,21.1L29.1,21.1z M29.1,35c-2,0-3.6-1.6-3.6-3.6c0-2,1.6-3.6,3.6-3.6s3.6,1.6,3.6,3.6
	C32.8,33.3,31.1,35,29.1,35L29.1,35z M29.1,48.1c-2,0-3.6-1.6-3.6-3.6c0-2,1.6-3.6,3.6-3.6s3.6,1.6,3.6,3.6
	C32.8,46.4,31.1,48.1,29.1,48.1L29.1,48.1z M29.1,61.9c-2,0-3.6-1.6-3.6-3.6c0-2,1.6-3.6,3.6-3.6s3.6,1.6,3.6,3.6
	C32.8,60.3,31.1,61.9,29.1,61.9L29.1,61.9z M29.1,75.8c-2,0-3.6-1.6-3.6-3.6c0-2,1.6-3.6,3.6-3.6s3.6,1.6,3.6,3.6
	C32.8,74.1,31.1,75.8,29.1,75.8L29.1,75.8z M29.1,89.6c-2,0-3.6-1.6-3.6-3.6c0-2,1.6-3.6,3.6-3.6s3.6,1.6,3.6,3.6
	C32.8,88,31.1,89.6,29.1,89.6L29.1,89.6z M29.1,102.7c-2,0-3.6-1.6-3.6-3.6c0-2,1.6-3.6,3.6-3.6s3.6,1.6,3.6,3.6
	C32.8,101.1,31.1,102.7,29.1,102.7L29.1,102.7z M29.1,116.6c-2,0-3.6-1.6-3.6-3.6c0-2,1.6-3.6,3.6-3.6s3.6,1.6,3.6,3.6
	C32.8,114.9,31.1,116.6,29.1,116.6L29.1,116.6z M29.1,130.4c-2,0-3.6-1.6-3.6-3.6c0-2,1.6-3.6,3.6-3.6s3.6,1.6,3.6,3.6
	C32.8,128.8,31.1,130.4,29.1,130.4L29.1,130.4z M42.3,7.3c-2,0-3.6-1.6-3.6-3.6c0-2,1.6-3.6,3.6-3.6c2,0,3.6,1.6,3.6,3.6
	C45.9,5.7,44.3,7.3,42.3,7.3L42.3,7.3z M42.3,21.1c-2,0-3.6-1.6-3.6-3.6c0-2,1.6-3.6,3.6-3.6c2,0,3.6,1.6,3.6,3.6
	C45.9,19.5,44.3,21.1,42.3,21.1L42.3,21.1z M42.3,35c-2,0-3.6-1.6-3.6-3.6c0-2,1.6-3.6,3.6-3.6c2,0,3.6,1.6,3.6,3.6
	C45.9,33.3,44.3,35,42.3,35L42.3,35z M42.3,48.1c-2,0-3.6-1.6-3.6-3.6c0-2,1.6-3.6,3.6-3.6c2,0,3.6,1.6,3.6,3.6
	C45.9,46.4,44.3,48.1,42.3,48.1L42.3,48.1z M42.3,61.9c-2,0-3.6-1.6-3.6-3.6c0-2,1.6-3.6,3.6-3.6c2,0,3.6,1.6,3.6,3.6
	C45.9,60.3,44.3,61.9,42.3,61.9L42.3,61.9z M42.3,75.8c-2,0-3.6-1.6-3.6-3.6c0-2,1.6-3.6,3.6-3.6c2,0,3.6,1.6,3.6,3.6
	C45.9,74.1,44.3,75.8,42.3,75.8L42.3,75.8z M42.3,89.6c-2,0-3.6-1.6-3.6-3.6c0-2,1.6-3.6,3.6-3.6c2,0,3.6,1.6,3.6,3.6
	C45.9,88,44.3,89.6,42.3,89.6L42.3,89.6z M42.3,102.7c-2,0-3.6-1.6-3.6-3.6c0-2,1.6-3.6,3.6-3.6c2,0,3.6,1.6,3.6,3.6
	C45.9,101.1,44.3,102.7,42.3,102.7L42.3,102.7z M42.3,116.6c-2,0-3.6-1.6-3.6-3.6c0-2,1.6-3.6,3.6-3.6c2,0,3.6,1.6,3.6,3.6
	C45.9,114.9,44.3,116.6,42.3,116.6L42.3,116.6z M42.3,130.4c-2,0-3.6-1.6-3.6-3.6c0-2,1.6-3.6,3.6-3.6c2,0,3.6,1.6,3.6,3.6
	C45.9,128.8,44.3,130.4,42.3,130.4L42.3,130.4z M55.4,7.3c-2,0-3.6-1.6-3.6-3.6c0-2,1.6-3.6,3.6-3.6c2,0,3.6,1.6,3.6,3.6
	C59,5.7,57.4,7.3,55.4,7.3L55.4,7.3z M55.4,21.1c-2,0-3.6-1.6-3.6-3.6c0-2,1.6-3.6,3.6-3.6c2,0,3.6,1.6,3.6,3.6
	C59,19.5,57.4,21.1,55.4,21.1L55.4,21.1z M55.4,35c-2,0-3.6-1.6-3.6-3.6c0-2,1.6-3.6,3.6-3.6c2,0,3.6,1.6,3.6,3.6
	C59,33.3,57.4,35,55.4,35L55.4,35z M55.4,48.1c-2,0-3.6-1.6-3.6-3.6c0-2,1.6-3.6,3.6-3.6c2,0,3.6,1.6,3.6,3.6
	C59,46.4,57.4,48.1,55.4,48.1L55.4,48.1z M55.4,61.9c-2,0-3.6-1.6-3.6-3.6c0-2,1.6-3.6,3.6-3.6c2,0,3.6,1.6,3.6,3.6
	C59,60.3,57.4,61.9,55.4,61.9L55.4,61.9z M55.4,75.8c-2,0-3.6-1.6-3.6-3.6c0-2,1.6-3.6,3.6-3.6c2,0,3.6,1.6,3.6,3.6
	C59,74.1,57.4,75.8,55.4,75.8L55.4,75.8z M55.4,89.6c-2,0-3.6-1.6-3.6-3.6c0-2,1.6-3.6,3.6-3.6c2,0,3.6,1.6,3.6,3.6
	C59,88,57.4,89.6,55.4,89.6L55.4,89.6z M55.4,102.7c-2,0-3.6-1.6-3.6-3.6c0-2,1.6-3.6,3.6-3.6c2,0,3.6,1.6,3.6,3.6
	C59,101.1,57.4,102.7,55.4,102.7L55.4,102.7z M55.4,116.6c-2,0-3.6-1.6-3.6-3.6c0-2,1.6-3.6,3.6-3.6c2,0,3.6,1.6,3.6,3.6
	C59,114.9,57.4,116.6,55.4,116.6L55.4,116.6z M55.4,130.4c-2,0-3.6-1.6-3.6-3.6c0-2,1.6-3.6,3.6-3.6c2,0,3.6,1.6,3.6,3.6
	C59,128.8,57.4,130.4,55.4,130.4L55.4,130.4z M67.7,7.3c-2,0-3.6-1.6-3.6-3.6c0-2,1.6-3.6,3.6-3.6c2,0,3.6,1.6,3.6,3.6
	C71.4,5.7,69.8,7.3,67.7,7.3L67.7,7.3z M67.7,21.1c-2,0-3.6-1.6-3.6-3.6c0-2,1.6-3.6,3.6-3.6c2,0,3.6,1.6,3.6,3.6
	C71.4,19.5,69.8,21.1,67.7,21.1L67.7,21.1z M67.7,35c-2,0-3.6-1.6-3.6-3.6c0-2,1.6-3.6,3.6-3.6c2,0,3.6,1.6,3.6,3.6
	C71.4,33.3,69.8,35,67.7,35L67.7,35z M67.7,48.1c-2,0-3.6-1.6-3.6-3.6c0-2,1.6-3.6,3.6-3.6c2,0,3.6,1.6,3.6,3.6
	C71.4,46.4,69.8,48.1,67.7,48.1L67.7,48.1z M67.7,61.9c-2,0-3.6-1.6-3.6-3.6c0-2,1.6-3.6,3.6-3.6c2,0,3.6,1.6,3.6,3.6
	C71.4,60.3,69.8,61.9,67.7,61.9L67.7,61.9z M67.7,75.8c-2,0-3.6-1.6-3.6-3.6c0-2,1.6-3.6,3.6-3.6c2,0,3.6,1.6,3.6,3.6
	C71.4,74.1,69.8,75.8,67.7,75.8L67.7,75.8z M67.7,89.6c-2,0-3.6-1.6-3.6-3.6c0-2,1.6-3.6,3.6-3.6c2,0,3.6,1.6,3.6,3.6
	C71.4,88,69.8,89.6,67.7,89.6L67.7,89.6z M67.7,102.7c-2,0-3.6-1.6-3.6-3.6c0-2,1.6-3.6,3.6-3.6c2,0,3.6,1.6,3.6,3.6
	C71.4,101.1,69.8,102.7,67.7,102.7L67.7,102.7z M67.7,116.6c-2,0-3.6-1.6-3.6-3.6c0-2,1.6-3.6,3.6-3.6c2,0,3.6,1.6,3.6,3.6
	C71.4,114.9,69.8,116.6,67.7,116.6L67.7,116.6z M67.7,130.4c-2,0-3.6-1.6-3.6-3.6c0-2,1.6-3.6,3.6-3.6c2,0,3.6,1.6,3.6,3.6
	C71.4,128.8,69.8,130.4,67.7,130.4L67.7,130.4z M80.9,7.3c-2,0-3.6-1.6-3.6-3.6c0-2,1.6-3.6,3.6-3.6c2,0,3.6,1.6,3.6,3.6
	C84.5,5.7,82.9,7.3,80.9,7.3L80.9,7.3z M80.9,21.1c-2,0-3.6-1.6-3.6-3.6c0-2,1.6-3.6,3.6-3.6c2,0,3.6,1.6,3.6,3.6
	C84.5,19.5,82.9,21.1,80.9,21.1L80.9,21.1z M80.9,35c-2,0-3.6-1.6-3.6-3.6c0-2,1.6-3.6,3.6-3.6c2,0,3.6,1.6,3.6,3.6
	C84.5,33.3,82.9,35,80.9,35L80.9,35z M80.9,48.1c-2,0-3.6-1.6-3.6-3.6c0-2,1.6-3.6,3.6-3.6c2,0,3.6,1.6,3.6,3.6
	C84.5,46.4,82.9,48.1,80.9,48.1L80.9,48.1z M80.9,61.9c-2,0-3.6-1.6-3.6-3.6c0-2,1.6-3.6,3.6-3.6c2,0,3.6,1.6,3.6,3.6
	C84.5,60.3,82.9,61.9,80.9,61.9L80.9,61.9z M80.9,75.8c-2,0-3.6-1.6-3.6-3.6c0-2,1.6-3.6,3.6-3.6c2,0,3.6,1.6,3.6,3.6
	C84.5,74.1,82.9,75.8,80.9,75.8L80.9,75.8z M80.9,89.6c-2,0-3.6-1.6-3.6-3.6c0-2,1.6-3.6,3.6-3.6c2,0,3.6,1.6,3.6,3.6
	C84.5,88,82.9,89.6,80.9,89.6L80.9,89.6z M80.9,102.7c-2,0-3.6-1.6-3.6-3.6c0-2,1.6-3.6,3.6-3.6c2,0,3.6,1.6,3.6,3.6
	C84.5,101.1,82.9,102.7,80.9,102.7L80.9,102.7z M80.9,116.6c-2,0-3.6-1.6-3.6-3.6c0-2,1.6-3.6,3.6-3.6c2,0,3.6,1.6,3.6,3.6
	C84.5,114.9,82.9,116.6,80.9,116.6L80.9,116.6z M80.9,130.4c-2,0-3.6-1.6-3.6-3.6c0-2,1.6-3.6,3.6-3.6c2,0,3.6,1.6,3.6,3.6
	C84.5,128.8,82.9,130.4,80.9,130.4L80.9,130.4z M94,7.3c-2,0-3.6-1.6-3.6-3.6C90.3,1.6,92,0,94,0c2,0,3.6,1.6,3.6,3.6
	C97.6,5.7,96,7.3,94,7.3L94,7.3z M94,21.1c-2,0-3.6-1.6-3.6-3.6c0-2,1.6-3.6,3.6-3.6c2,0,3.6,1.6,3.6,3.6C97.6,19.5,96,21.1,94,21.1
	L94,21.1z M94,35c-2,0-3.6-1.6-3.6-3.6c0-2,1.6-3.6,3.6-3.6c2,0,3.6,1.6,3.6,3.6C97.6,33.3,96,35,94,35L94,35z M94,48.1
	c-2,0-3.6-1.6-3.6-3.6c0-2,1.6-3.6,3.6-3.6c2,0,3.6,1.6,3.6,3.6C97.6,46.4,96,48.1,94,48.1L94,48.1z M94,61.9c-2,0-3.6-1.6-3.6-3.6
	c0-2,1.6-3.6,3.6-3.6c2,0,3.6,1.6,3.6,3.6C97.6,60.3,96,61.9,94,61.9L94,61.9z M94,75.8c-2,0-3.6-1.6-3.6-3.6c0-2,1.6-3.6,3.6-3.6
	c2,0,3.6,1.6,3.6,3.6C97.6,74.1,96,75.8,94,75.8L94,75.8z M94,89.6c-2,0-3.6-1.6-3.6-3.6c0-2,1.6-3.6,3.6-3.6c2,0,3.6,1.6,3.6,3.6
	C97.6,88,96,89.6,94,89.6L94,89.6z M94,102.7c-2,0-3.6-1.6-3.6-3.6c0-2,1.6-3.6,3.6-3.6c2,0,3.6,1.6,3.6,3.6
	C97.6,101.1,96,102.7,94,102.7L94,102.7z M94,116.6c-2,0-3.6-1.6-3.6-3.6c0-2,1.6-3.6,3.6-3.6c2,0,3.6,1.6,3.6,3.6
	C97.6,114.9,96,116.6,94,116.6L94,116.6z M94,130.4c-2,0-3.6-1.6-3.6-3.6c0-2,1.6-3.6,3.6-3.6c2,0,3.6,1.6,3.6,3.6
	C97.6,128.8,96,130.4,94,130.4L94,130.4z M106.4,7.3c-2,0-3.6-1.6-3.6-3.6c0-2,1.6-3.6,3.6-3.6c2,0,3.6,1.6,3.6,3.6
	C110,5.7,108.4,7.3,106.4,7.3L106.4,7.3z M106.4,21.1c-2,0-3.6-1.6-3.6-3.6c0-2,1.6-3.6,3.6-3.6c2,0,3.6,1.6,3.6,3.6
	C110,19.5,108.4,21.1,106.4,21.1L106.4,21.1z M106.4,35c-2,0-3.6-1.6-3.6-3.6c0-2,1.6-3.6,3.6-3.6c2,0,3.6,1.6,3.6,3.6
	C110,33.3,108.4,35,106.4,35L106.4,35z M106.4,48.1c-2,0-3.6-1.6-3.6-3.6c0-2,1.6-3.6,3.6-3.6c2,0,3.6,1.6,3.6,3.6
	C110,46.4,108.4,48.1,106.4,48.1L106.4,48.1z M106.4,61.9c-2,0-3.6-1.6-3.6-3.6c0-2,1.6-3.6,3.6-3.6c2,0,3.6,1.6,3.6,3.6
	C110,60.3,108.4,61.9,106.4,61.9L106.4,61.9z M106.4,75.8c-2,0-3.6-1.6-3.6-3.6c0-2,1.6-3.6,3.6-3.6c2,0,3.6,1.6,3.6,3.6
	C110,74.1,108.4,75.8,106.4,75.8L106.4,75.8z M106.4,89.6c-2,0-3.6-1.6-3.6-3.6c0-2,1.6-3.6,3.6-3.6c2,0,3.6,1.6,3.6,3.6
	C110,88,108.4,89.6,106.4,89.6L106.4,89.6z M106.4,102.7c-2,0-3.6-1.6-3.6-3.6c0-2,1.6-3.6,3.6-3.6c2,0,3.6,1.6,3.6,3.6
	C110,101.1,108.4,102.7,106.4,102.7L106.4,102.7z M106.4,116.6c-2,0-3.6-1.6-3.6-3.6c0-2,1.6-3.6,3.6-3.6c2,0,3.6,1.6,3.6,3.6
	C110,114.9,108.4,116.6,106.4,116.6L106.4,116.6z M106.4,130.4c-2,0-3.6-1.6-3.6-3.6c0-2,1.6-3.6,3.6-3.6c2,0,3.6,1.6,3.6,3.6
	C110,128.8,108.4,130.4,106.4,130.4L106.4,130.4z M119.5,7.3c-2,0-3.6-1.6-3.6-3.6c0-2,1.6-3.6,3.6-3.6c2,0,3.6,1.6,3.6,3.6
	C123.1,5.7,121.5,7.3,119.5,7.3L119.5,7.3z M119.5,21.1c-2,0-3.6-1.6-3.6-3.6c0-2,1.6-3.6,3.6-3.6c2,0,3.6,1.6,3.6,3.6
	C123.1,19.5,121.5,21.1,119.5,21.1L119.5,21.1z M119.5,35c-2,0-3.6-1.6-3.6-3.6c0-2,1.6-3.6,3.6-3.6c2,0,3.6,1.6,3.6,3.6
	C123.1,33.3,121.5,35,119.5,35L119.5,35z M119.5,48.1c-2,0-3.6-1.6-3.6-3.6c0-2,1.6-3.6,3.6-3.6c2,0,3.6,1.6,3.6,3.6
	C123.1,46.4,121.5,48.1,119.5,48.1L119.5,48.1z M119.5,61.9c-2,0-3.6-1.6-3.6-3.6c0-2,1.6-3.6,3.6-3.6c2,0,3.6,1.6,3.6,3.6
	C123.1,60.3,121.5,61.9,119.5,61.9L119.5,61.9z M119.5,75.8c-2,0-3.6-1.6-3.6-3.6c0-2,1.6-3.6,3.6-3.6c2,0,3.6,1.6,3.6,3.6
	C123.1,74.1,121.5,75.8,119.5,75.8L119.5,75.8z M119.5,89.6c-2,0-3.6-1.6-3.6-3.6c0-2,1.6-3.6,3.6-3.6c2,0,3.6,1.6,3.6,3.6
	C123.1,88,121.5,89.6,119.5,89.6L119.5,89.6z M119.5,102.7c-2,0-3.6-1.6-3.6-3.6c0-2,1.6-3.6,3.6-3.6c2,0,3.6,1.6,3.6,3.6
	C123.1,101.1,121.5,102.7,119.5,102.7L119.5,102.7z M119.5,116.6c-2,0-3.6-1.6-3.6-3.6c0-2,1.6-3.6,3.6-3.6c2,0,3.6,1.6,3.6,3.6
	C123.1,114.9,121.5,116.6,119.5,116.6L119.5,116.6z M119.5,130.4c-2,0-3.6-1.6-3.6-3.6c0-2,1.6-3.6,3.6-3.6c2,0,3.6,1.6,3.6,3.6
	C123.1,128.8,121.5,130.4,119.5,130.4L119.5,130.4z"/>
</svg>
