<?xml version="1.0" standalone="no"?>
<!DOCTYPE svg PUBLIC "-//W3C//DTD SVG 20010904//EN"
 "http://www.w3.org/TR/2001/REC-SVG-20010904/DTD/svg10.dtd">
<svg version="1.0" xmlns="http://www.w3.org/2000/svg"
 width="512.000000pt" height="512.000000pt" viewBox="0 0 512.000000 512.000000"
 preserveAspectRatio="xMidYMid meet">
<metadata>
Created by potrace 1.16, written by Peter Selinger 2001-2019
</metadata>
<g transform="translate(0.000000,512.000000) scale(0.100000,-0.100000)"
fill="#000000" stroke="none">
<path d="M1511 5100 c-118 -43 -207 -123 -264 -239 l-32 -66 -5 -1050 -5
-1049 -84 -13 c-101 -16 -262 -68 -363 -119 -382 -191 -660 -562 -732 -979
-20 -116 -21 -342 -1 -465 91 -557 554 -1018 1111 -1105 87 -14 308 -15 1874
-13 l1775 3 70 34 c92 45 171 124 216 216 l34 70 3 1840 c1 1012 0 1851 -3
1865 -7 26 -976 1007 -1049 1061 l-39 29 -1226 0 c-1185 -1 -1228 -1 -1280
-20z m2299 -732 c0 -427 1 -455 19 -482 10 -15 32 -37 47 -47 27 -18 55 -19
482 -19 l452 0 -2 -1702 -3 -1703 -22 -35 c-12 -19 -37 -44 -55 -55 -32 -20
-53 -20 -1270 -23 l-1236 -2 80 77 c194 189 335 444 383 695 9 46 18 93 21
106 l4 22 803 0 c769 0 803 1 831 19 46 31 66 69 66 131 0 59 -19 98 -61 128
-22 16 -94 17 -833 22 l-810 5 -13 80 c-25 152 -94 338 -173 466 l-30 49 913
0 c877 0 913 1 941 19 46 31 66 69 66 131 0 62 -20 100 -66 131 -28 18 -67 19
-1076 19 l-1047 0 -74 53 c-154 111 -374 203 -548 230 l-84 13 0 1004 0 1005
22 35 c24 39 53 60 98 71 17 4 513 7 1103 8 l1072 1 0 -452z m540 -13 l235
-235 -238 0 -237 0 0 235 c0 129 1 235 3 235 1 0 108 -106 237 -235z m-2875
-1969 c200 -16 425 -118 592 -270 134 -122 255 -324 305 -506 20 -73 23 -109
23 -260 0 -204 -16 -281 -91 -439 -106 -224 -276 -395 -499 -502 -459 -219
-1000 -75 -1300 346 -60 83 -128 230 -157 335 -20 74 -23 108 -23 260 0 203
16 280 89 436 59 124 115 204 210 300 177 176 404 283 644 303 48 4 98 6 112
5 14 -2 57 -5 95 -8z"/>
<path d="M1976 3281 c-46 -31 -66 -69 -66 -131 0 -62 20 -100 66 -131 28 -18
69 -19 1184 -19 1115 0 1156 1 1184 19 46 31 66 69 66 131 0 62 -20 100 -66
131 -28 18 -69 19 -1184 19 -1115 0 -1156 -1 -1184 -19z"/>
<path d="M1770 1754 c-14 -9 -159 -150 -322 -313 l-298 -296 -97 96 c-125 123
-135 129 -203 129 -96 0 -150 -54 -150 -151 0 -46 5 -63 29 -95 34 -45 304
-313 341 -338 15 -10 45 -16 81 -16 46 0 63 5 95 29 46 34 714 705 738 741 10
15 16 45 16 80 0 62 -20 100 -66 131 -37 24 -129 26 -164 3z"/>
</g>
</svg>
