<?xml version="1.0" standalone="no"?>
<!DOCTYPE svg PUBLIC "-//W3C//DTD SVG 20010904//EN"
 "http://www.w3.org/TR/2001/REC-SVG-20010904/DTD/svg10.dtd">
<svg version="1.0" xmlns="http://www.w3.org/2000/svg"
 width="512.000000pt" height="512.000000pt" viewBox="0 0 512.000000 512.000000"
 preserveAspectRatio="xMidYMid meet">

<g transform="translate(0.000000,512.000000) scale(0.100000,-0.100000)"
fill="#000000" stroke="none">
<path d="M2323 4631 c-58 -15 -137 -67 -174 -116 -53 -68 -69 -128 -69 -251
l0 -103 -887 -3 -888 -3 -67 -32 c-93 -44 -151 -100 -196 -191 l-37 -76 0
-1536 0 -1536 37 -76 c45 -91 103 -147 196 -191 l67 -32 2255 0 2255 0 67 32
c93 44 151 100 196 191 l37 76 0 1535 0 1536 -32 67 c-44 93 -100 151 -191
196 l-76 37 -887 3 -887 3 -4 122 c-4 107 -8 128 -31 173 -38 75 -69 107 -139
145 l-63 34 -225 2 c-124 1 -239 -2 -257 -6z m397 -551 l0 -240 -160 0 -160 0
0 240 0 240 160 0 160 0 0 -240z m-635 -287 c8 -60 59 -156 98 -189 16 -14 53
-37 81 -52 l51 -27 245 0 245 0 63 34 c35 19 74 48 88 64 38 45 71 117 79 170
l7 47 855 0 854 0 24 -25 25 -24 0 -1471 0 -1471 -25 -24 -24 -25 -2191 0
-2191 0 -24 25 -25 24 0 1471 0 1471 25 24 24 25 854 0 855 0 7 -47z"/>
<path d="M1650 3354 c-196 -38 -367 -169 -454 -346 -49 -100 -76 -209 -76
-306 0 -112 59 -281 124 -359 31 -37 32 -50 6 -58 -12 -4 -56 -33 -99 -66
-163 -123 -271 -286 -327 -495 -15 -57 -19 -107 -19 -286 0 -238 1 -242 69
-292 27 -21 34 -21 886 -21 852 0 859 0 886 21 68 50 69 54 69 287 0 232 -9
291 -66 430 -61 148 -191 304 -326 391 -40 26 -73 49 -73 53 0 3 12 19 26 36
65 78 124 247 124 359 0 190 -102 408 -242 518 -58 46 -148 94 -217 117 -46
14 -244 26 -291 17z m237 -344 c62 -26 135 -101 166 -168 29 -65 29 -179 0
-244 -30 -66 -104 -141 -166 -169 -73 -33 -181 -33 -254 0 -62 28 -136 103
-166 169 -29 65 -29 179 0 244 25 54 94 133 137 155 92 48 192 53 283 13z m72
-945 c111 -27 188 -70 271 -154 118 -119 170 -240 170 -395 l0 -76 -640 0
-640 0 0 78 c0 156 52 277 169 392 83 82 164 129 267 154 82 20 320 20 403 1z"/>
<path d="M3290 2061 c-104 -55 -116 -198 -22 -269 l35 -27 526 -2 526 -3 40
23 c43 24 85 91 85 137 0 46 -42 113 -85 137 -40 23 -40 23 -555 23 -483 0
-518 -1 -550 -19z"/>
<path d="M3295 1426 c-94 -41 -124 -168 -58 -247 45 -54 72 -59 285 -59 181 0
195 2 233 23 43 24 85 91 85 137 0 46 -42 113 -85 137 -38 21 -51 23 -235 22
-140 0 -204 -4 -225 -13z"/>
<path d="M4245 1418 c-43 -25 -85 -93 -85 -138 0 -14 10 -46 23 -70 59 -119
223 -117 278 4 10 23 19 52 19 66 0 40 -35 105 -70 130 -47 34 -115 37 -165 8z"/>
</g>
</svg>
