<?xml version="1.0" standalone="no"?>
<!DOCTYPE svg PUBLIC "-//W3C//DTD SVG 20010904//EN"
 "http://www.w3.org/TR/2001/REC-SVG-20010904/DTD/svg10.dtd">
<svg version="1.0" xmlns="http://www.w3.org/2000/svg"
 width="64.000000pt" height="64.000000pt" viewBox="0 0 64.000000 64.000000"
 preserveAspectRatio="xMidYMid meet">
<metadata>
Created by potrace 1.16, written by Peter Selinger 2001-2019
</metadata>
<g transform="translate(0.000000,64.000000) scale(0.100000,-0.100000)"
fill="#000000" stroke="none">
<path d="M220 567 c-49 -16 -133 -102 -148 -153 -15 -52 -15 -135 0 -185 29
-98 134 -169 248 -169 154 1 260 106 260 260 0 114 -71 219 -169 248 -47 15
-144 14 -191 -1z m221 -72 c64 -45 91 -104 87 -187 -4 -82 -39 -139 -108 -176
-38 -20 -56 -23 -112 -20 -82 4 -139 39 -176 108 -20 38 -23 56 -20 112 4 82
39 139 108 176 38 20 56 23 112 20 55 -3 75 -9 109 -33z"/>
<path d="M307 474 c-4 -4 -7 -18 -7 -31 0 -19 -5 -23 -28 -23 -38 0 -52 -17
-52 -61 0 -48 13 -57 85 -61 45 -2 60 -7 60 -18 0 -12 -16 -16 -72 -18 -65 -3
-73 -5 -73 -22 0 -17 7 -20 39 -20 36 0 40 -3 43 -27 2 -17 9 -28 18 -28 9 0
16 11 18 28 3 22 8 27 31 27 37 0 51 17 51 61 0 48 -13 57 -85 61 -45 2 -60 7
-60 18 0 12 16 16 73 18 64 3 72 5 72 22 0 17 -7 20 -39 20 -36 0 -40 3 -43
27 -3 26 -18 39 -31 27z"/>
</g>
</svg>
