<svg xmlns="http://www.w3.org/2000/svg" viewBox="0 0 523.2 579.18"><title>home-2nd</title><g id="Layer_2" data-name="Layer 2"><g id="Layer_1-2" data-name="Layer 1"><path d="M523.2,292.41v15c-1.9,7.9-3.1,16-5.7,23.7-9.4,27.7-28.1,48.3-50.8,65.9-17.8,13.7-37.7,23.8-58,33.1A351.7,351.7,0,0,0,295.8,512a356.92,356.92,0,0,1-42.7,39.8c-33.3,26.2-71,34.6-111.8,20.8-45.2-15.3-78.2-62.4-81.2-112-1.8-29.5.9-58.6,3.5-87.8,2.2-24.5.2-48.5-7.8-71.9S35.7,256,23.1,234.81c-15-25.4-24.2-52.4-23-82.5.7-15.9,5-30.5,14.1-43.5,13.2-19,32.2-29.4,53.6-36.2,24.4-7.8,49.6-9.6,75-10,17.2-.3,32.9-5.3,46.6-15.6,8.4-6.3,15.9-13.7,24.2-20.1,8.9-6.9,17.6-14.5,27.5-19.7,24.8-13,53.1-8.4,72.5,13.6A98.54,98.54,0,0,1,336,64.31q6.9,29.7,13,59.5c5.9,28.2,21.9,48,48.6,59,10.8,4.5,21.3,9.3,32.1,13.9,16.1,6.8,32.6,12.6,47.1,22.7,21.5,15,37.2,34.1,43.6,60C521.6,283.61,522.3,288,523.2,292.41Z"/></g></g></svg>