<svg xmlns="http://www.w3.org/2000/svg" viewBox="0 0 80.16 80.16"><defs><style>.cls-1{fill:#37d531;}</style></defs><title>logo-watermark</title><g id="Layer_2" data-name="Layer 2"><g id="Layer_1-2" data-name="Layer 1"><path class="cls-1" d="M48.28,74.11a8.46,8.46,0,0,1,0-12L59.83,50.58l4.31,4.31L52.59,66.45A2.38,2.38,0,0,0,56,69.81l.59-.59,4.31,4.31-.59.59a8.48,8.48,0,0,1-12,0"/><path class="cls-1" d="M22.22,77.68a8.5,8.5,0,0,1,0-12L64.8,23.12l4.31,4.31L26.53,70a2.38,2.38,0,0,0,3.37,3.36l.58-.59,4.31,4.32-.58.58a8.49,8.49,0,0,1-12,0"/><path class="cls-1" d="M67.94,42.48l4.31,4.31-5,5-4.32-4.31Z"/><path class="cls-1" d="M75.84,34.57l4.32,4.31-5,5-4.32-4.31Z"/><path class="cls-1" d="M6,31.88a8.49,8.49,0,0,1,0-12l.59-.59,4.31,4.32-.59.59a2.38,2.38,0,0,0,3.36,3.36L25.26,16l4.32,4.32L18,31.88a8.49,8.49,0,0,1-12,0"/><path class="cls-1" d="M2.48,57.94a8.48,8.48,0,0,1,0-12l.58-.58,4.32,4.31-.59.58a2.38,2.38,0,1,0,3.36,3.36L52.72,11.05,57,15.36,14.46,57.93a8.48,8.48,0,0,1-12,0"/><path class="cls-1" d="M33.37,7.91l4.31,4.31-5,5L28.38,12.9Z"/><path class="cls-1" d="M41.28,0l4.31,4.31-5,5L36.29,5Z"/></g></g></svg>