<?xml version="1.0" standalone="no"?>
<!DOCTYPE svg PUBLIC "-//W3C//DTD SVG 20010904//EN"
 "http://www.w3.org/TR/2001/REC-SVG-20010904/DTD/svg10.dtd">
<svg version="1.0" xmlns="http://www.w3.org/2000/svg"
 width="512.000000pt" height="512.000000pt" viewBox="0 0 512.000000 512.000000"
 preserveAspectRatio="xMidYMid meet">

<g transform="translate(0.000000,512.000000) scale(0.100000,-0.100000)"
fill="#000000" stroke="none">
<path d="M95 4306 c-37 -16 -70 -52 -84 -89 -16 -42 -14 -241 3 -280 56 -135
261 -122 298 19 l12 44 1598 0 1598 0 0 -160 0 -160 -1709 -2 c-1709 -3 -1710
-3 -1737 -24 -15 -11 -37 -33 -48 -48 -21 -27 -21 -30 -21 -1366 0 -1336 0
-1339 21 -1366 11 -15 33 -37 48 -48 l27 -21 1579 0 1579 0 27 21 c53 39 69
71 69 134 0 63 -16 95 -69 134 -27 21 -34 21 -1104 24 l-1077 2 -18 78 c-35
146 -122 303 -237 426 -111 118 -295 225 -452 263 l-78 18 0 335 0 335 78 18
c155 37 316 130 438 251 121 122 214 283 251 438 l18 78 1095 0 1096 0 13 -62
c44 -215 144 -303 272 -238 72 37 100 112 73 196 -8 27 -19 61 -24 77 l-9 27
230 0 229 0 -1 -67 0 -68 -68 -33 c-139 -68 -261 -193 -331 -337 -61 -125 -75
-190 -74 -340 1 -127 5 -151 50 -285 3 -10 -8 -22 -33 -35 -54 -29 -192 -170
-232 -237 -178 -305 -141 -668 96 -919 148 -157 337 -239 551 -239 126 0 217
22 341 82 92 44 116 61 190 137 125 125 183 233 217 401 23 113 15 245 -22
360 -17 56 -23 85 -15 88 6 2 41 27 78 56 86 66 162 160 212 261 60 120 75
189 75 335 0 146 -15 215 -75 336 -112 228 -330 383 -591 419 l-47 6 -3 149
c-3 162 -8 177 -72 224 -25 20 -43 21 -256 24 l-229 3 -3 269 c-3 253 -4 270
-24 296 -11 15 -33 37 -48 48 l-27 21 -1807 2 c-1491 2 -1812 0 -1837 -11z
m678 -968 c-24 -98 -121 -242 -210 -313 -55 -44 -173 -107 -220 -118 l-23 -5
0 229 0 229 229 0 229 0 -5 -22z m3692 -392 c238 -63 380 -298 320 -529 -43
-165 -157 -279 -322 -322 -230 -60 -466 82 -529 320 -50 185 44 397 216 489
99 53 216 69 315 42z m-554 -1036 c110 -87 254 -137 423 -148 l100 -7 19 -50
c77 -207 -22 -444 -226 -541 -255 -121 -551 25 -617 305 -36 154 37 348 168
442 31 21 61 39 69 39 7 0 36 -18 64 -40z m-3476 -376 c92 -44 175 -110 232
-187 44 -59 94 -156 106 -204 l5 -23 -229 0 -229 0 0 229 0 229 23 -5 c12 -3
54 -20 92 -39z"/>
<path d="M1940 3024 c-36 -7 -108 -35 -160 -60 -159 -79 -297 -236 -365 -417
-91 -243 -65 -528 67 -752 23 -38 78 -106 123 -151 65 -66 98 -90 175 -128
206 -101 394 -101 599 0 207 102 362 320 406 568 37 217 -5 443 -117 616 -164
255 -453 383 -728 324z m286 -338 c122 -56 223 -205 246 -364 32 -223 -74
-448 -249 -530 -49 -22 -72 -27 -143 -27 -71 0 -94 5 -143 27 -126 59 -226
206 -249 365 -36 252 103 501 309 553 61 15 167 4 229 -24z"/>
<path d="M895 2386 c-101 -44 -125 -178 -46 -257 65 -65 157 -65 222 0 124
124 -15 327 -176 257z"/>
<path d="M3135 2386 c-101 -44 -125 -178 -46 -257 65 -65 157 -65 222 0 124
124 -15 327 -176 257z"/>
</g>
</svg>
