<?xml version="1.0" standalone="no"?>
<!DOCTYPE svg PUBLIC "-//W3C//DTD SVG 20010904//EN"
 "http://www.w3.org/TR/2001/REC-SVG-20010904/DTD/svg10.dtd">
<svg version="1.0" xmlns="http://www.w3.org/2000/svg"
 width="512.000000pt" height="512.000000pt" viewBox="0 0 512.000000 512.000000"
 preserveAspectRatio="xMidYMid meet">

<g transform="translate(0.000000,512.000000) scale(0.100000,-0.100000)"
fill="#000000" stroke="none">
<path d="M2580 4883 c0 -275 -9 -253 100 -253 98 0 274 -26 407 -60 863 -223
1495 -987 1542 -1865 l6 -120 244 -3 244 -2 -7 122 c-20 360 -106 685 -262
998 -130 258 -260 443 -459 649 -446 462 -1038 730 -1692 767 l-123 7 0 -240z"/>
<path d="M734 4602 c-79 -28 -132 -73 -385 -329 -254 -257 -286 -300 -325
-443 -28 -101 -26 -349 5 -500 75 -373 297 -864 582 -1287 320 -477 766 -946
1214 -1278 511 -379 1085 -659 1507 -735 301 -54 516 -30 678 77 30 20 164
147 298 282 290 293 307 319 307 462 0 148 -8 159 -425 575 -320 320 -362 359
-425 390 -61 30 -81 35 -140 35 -144 0 -180 -24 -461 -302 -164 -163 -237
-229 -253 -229 -55 0 -345 167 -526 303 -323 242 -681 621 -895 947 -74 113
-170 304 -170 339 0 19 56 81 233 260 280 284 292 303 292 451 0 148 -2 151
-418 570 -406 410 -421 421 -562 427 -59 3 -93 -1 -131 -15z"/>
<path d="M2580 3971 l0 -239 63 -6 c183 -19 316 -55 449 -122 107 -54 182
-107 276 -198 218 -209 324 -436 358 -763 l6 -63 239 0 239 0 0 53 c0 76 -25
250 -49 344 -72 281 -223 544 -431 753 -209 208 -471 359 -750 430 -99 25
-266 50 -342 50 l-58 0 0 -239z"/>
</g>
</svg>
