<?xml version="1.0" standalone="yes"?>
<svg xmlns="http://www.w3.org/2000/svg" width="512" height="512">
<path style="fill:#ffffff; stroke:none;" d="M0 0L0 512L140 512L140 511C126.445 508.961 115.449 496.859 112.015 484C109.675 475.232 111 465.02 111 456L111 404L111 97C111 75.4886 106.352 47.6944 112.299 27C115.872 14.5635 126.886 2.97296 140 1C129.02 -3.60736 109.944 0 98 0L0 0z"/>
<path style="fill:#010101; stroke:none;" d="M140 0.464508C107.65 6.29922 111 40.2538 111 65L111 265L111 430C111 450.044 105.313 479.866 117.57 496.985C132.214 517.437 160.111 512 182 512L310 512C329.904 512 353.535 515.49 373 511.331C405.21 504.449 401 469.951 401 445L401 241L401 81C401 61.1727 406.561 31.957 394.43 15.0146C379.649 -5.62891 351.087 0 329 0L203 0C182.854 0 159.821 -3.11041 140 0.464508z"/>
<path style="fill:#ffffff; stroke:none;" d="M372 0L372 1C385.114 2.97299 396.128 14.5635 399.701 27C405.648 47.6944 401 75.4886 401 97L401 404L401 456C401 465.02 402.325 475.232 399.985 484C396.551 496.859 385.555 508.961 372 511L372 512L512 512L512 0L372 0M202.228 24.0278C197.005 27.2217 197.997 38.0649 204.044 39.6821C211.745 41.7417 222.038 40 230 40L284 40C290.543 40 305.445 42.7523 310.686 38.3966C315.231 34.6193 313.844 24.892 307.956 23.3179C300.541 21.3358 290.664 23 283 23L229 23C222.08 23 208.234 20.3557 202.228 24.0278M139 63L139 393L373 393L373 63L139 63M252 428.518C222.773 434.718 230.837 480.136 260 474.177C289.328 468.184 281.062 422.353 252 428.518z"/>
</svg>
