<?xml version="1.0" standalone="no"?>
<!DOCTYPE svg PUBLIC "-//W3C//DTD SVG 20010904//EN"
 "http://www.w3.org/TR/2001/REC-SVG-20010904/DTD/svg10.dtd">
<svg version="1.0" xmlns="http://www.w3.org/2000/svg"
 width="388.000000pt" height="375.000000pt" viewBox="0 0 388.000000 375.000000"
 preserveAspectRatio="xMidYMid meet">

<g transform="translate(0.000000,375.000000) scale(0.100000,-0.100000)"
fill="#000000" stroke="none">
<path d="M266 3720 c-98 -63 -184 -176 -234 -308 -22 -58 -25 -84 -26 -187 0
-100 4 -131 23 -185 71 -203 238 -356 441 -405 157 -37 318 -30 690 31 219 36
434 38 555 5 117 -31 201 -76 270 -147 105 -106 150 -202 245 -524 61 -207 94
-289 156 -382 57 -85 123 -141 289 -244 70 -43 156 -105 191 -137 108 -100
140 -165 220 -449 64 -230 121 -343 235 -472 87 -99 249 -211 370 -257 79 -30
189 -59 189 -49 0 5 -19 14 -42 20 -237 60 -454 211 -587 410 -67 100 -105
192 -151 365 -66 247 -119 356 -216 445 -27 25 -116 88 -199 140 -258 162
-334 265 -425 575 -96 327 -131 411 -213 520 -73 96 -158 153 -297 196 -69 22
-92 24 -280 24 -187 -1 -222 -4 -400 -35 -169 -29 -218 -34 -365 -34 -134 0
-184 3 -234 17 -216 61 -381 226 -436 437 -23 87 -16 230 16 319 41 117 137
239 249 312 46 31 14 29 -34 -1z"/>
</g>
</svg>
