<svg xmlns="http://www.w3.org/2000/svg" xmlns:xlink="http://www.w3.org/1999/xlink" viewBox="0 0 525.21 581.18"><defs><style>.cls-1{fill:url(#linear-gradient);}</style><linearGradient id="linear-gradient" x1="262.6" y1="-11.02" x2="262.6" y2="570.15" gradientTransform="matrix(1, 0, 0, -1, 0, 570.15)" gradientUnits="userSpaceOnUse"><stop offset="0" stop-color="#34c636"/><stop offset="1" stop-color="#108af9"/></linearGradient></defs><title>Asset 1</title><g id="Layer_2" data-name="Layer 2"><g id="Layer_1-2" data-name="Layer 1"><path class="cls-1" d="M180.61,581.18a120.93,120.93,0,0,1-38.6-6.6c-21.9-7.4-42.1-22.8-56.9-43.5-14.6-20.4-23.5-45-24.9-69.4-1.8-29.7.9-59.3,3.5-87.9,2.4-26-.2-49.4-7.7-71.5-8.1-23.6-20.6-45.5-32.6-65.9C6.51,208.08-1,180.88.11,153.28c.7-16.8,5.4-31.3,14.3-44,11.8-16.9,29-28.6,54.1-36.6,25.4-8.1,51.2-9.7,75.3-10.1,17.3-.3,32.8-5.5,46-15.4,4.4-3.3,8.7-7,12.8-10.6,3.7-3.2,7.5-6.5,11.4-9.5,1.8-1.4,3.6-2.8,5.3-4.2,7-5.6,14.3-11.4,22.3-15.6,25.6-13.4,54.5-8,73.8,13.8A99.75,99.75,0,0,1,338,65c4.9,20.8,9.3,41.7,13.1,59.5,6,28.3,21.7,47.4,48,58.3,6,2.5,12,5.1,17.8,7.7,4.7,2.1,9.5,4.2,14.3,6.2,3,1.3,6.1,2.5,9.2,3.8,12.9,5.3,26.3,10.7,38.1,19,23.6,16.4,38,36.3,44,60.6.7,3,1.3,6.1,1.9,9,.3,1.4.5,2.8.8,4.1v15.4c-.6,2.5-1.1,5-1.6,7.5a134,134,0,0,1-4.1,16.3c-8.5,24.9-24.7,45.9-51.1,66.3-18.5,14.3-38.9,24.4-58.2,33.2a353.46,353.46,0,0,0-112.5,81.7,379.28,379.28,0,0,1-42.8,39.9C231.31,571.88,206.51,581.18,180.61,581.18ZM270.21,2a59.6,59.6,0,0,0-27.7,7c-7.8,4.1-15,9.8-22,15.4l-5.4,4.2c-3.9,3-7.7,6.3-11.3,9.4-4.2,3.6-8.4,7.3-12.9,10.7-13.5,10.2-29.4,15.5-47.1,15.8-23.9.4-49.5,1.9-74.7,10-24.7,7.9-41.6,19.3-53.1,35.9-8.7,12.5-13.2,26.5-13.9,43-1.1,27.2,6.3,54,22.8,81.9,12.1,20.5,24.6,42.4,32.8,66.3,7.7,22.4,10.2,46.1,7.8,72.3-2.6,28.5-5.3,58.1-3.5,87.6,3.1,50.5,36.2,96.2,80.5,111.1,39.2,13.2,76.5,6.3,110.9-20.7a367.29,367.29,0,0,0,42.6-39.7,354.86,354.86,0,0,1,113.2-82.1c19.2-8.8,39.5-18.9,57.8-33,26.1-20.1,42.1-40.9,50.5-65.4a126.22,126.22,0,0,0,4-16.1c.5-2.4,1-4.9,1.6-7.4v-14.8c-.3-1.4-.5-2.7-.8-4.1-.6-2.9-1.1-6-1.9-8.9-5.9-23.8-20-43.3-43.2-59.4-11.7-8.1-24.9-13.5-37.7-18.8-3.1-1.3-6.1-2.5-9.2-3.8-4.8-2-9.6-4.1-14.3-6.2-5.8-2.6-11.8-5.2-17.8-7.7-26.6-11-43.2-31.1-49.2-59.7-3.7-17.7-8.2-38.6-13-59.4a97.77,97.77,0,0,0-22.2-43.1C302,9,286.41,2,270.21,2Z"/></g></g></svg>