<?xml version="1.0" standalone="no"?>
<!DOCTYPE svg PUBLIC "-//W3C//DTD SVG 20010904//EN"
 "http://www.w3.org/TR/2001/REC-SVG-20010904/DTD/svg10.dtd">
<svg version="1.0" xmlns="http://www.w3.org/2000/svg"
 width="512.000000pt" height="512.000000pt" viewBox="0 0 512.000000 512.000000"
 preserveAspectRatio="xMidYMid meet">

<g transform="translate(0.000000,512.000000) scale(0.100000,-0.100000)"
fill="#000000" stroke="none">
<path d="M1205 4831 c-91 -23 -173 -90 -215 -176 -24 -47 -25 -61 -28 -252
l-3 -202 -328 -3 -327 -3 -76 -37 c-91 -45 -147 -103 -191 -196 l-32 -67 0
-837 c0 -829 0 -837 21 -864 39 -53 71 -69 134 -69 63 0 95 16 134 69 19 25
21 44 24 217 l3 189 2240 0 2239 0 0 -975 0 -976 -25 -24 -24 -25 -2189 0
c-2141 0 -2190 0 -2213 19 l-24 19 -5 530 c-5 516 -6 531 -26 558 -39 53 -71
69 -134 69 -63 0 -95 -16 -134 -69 -21 -27 -21 -38 -21 -585 l0 -557 37 -76
c45 -91 103 -147 196 -191 l67 -32 2256 0 2255 0 76 37 c91 45 147 103 191
196 l32 67 0 1655 0 1655 -32 67 c-44 93 -100 151 -191 196 l-76 37 -327 3
-327 3 -4 202 -3 202 -34 63 c-37 69 -79 109 -151 144 -43 22 -56 23 -290 23
-241 0 -246 0 -295 -25 -64 -31 -124 -91 -155 -155 -24 -47 -25 -61 -28 -252
l-3 -203 -639 0 -638 0 -4 203 -3 202 -34 63 c-37 69 -80 109 -151 144 -42 21
-59 23 -270 25 -124 1 -238 -2 -255 -6z m395 -791 l0 -480 -160 0 -160 0 0
480 0 480 160 0 160 0 0 -480z m2240 0 l0 -480 -160 0 -160 0 0 480 0 480 160
0 160 0 0 -480z m-2878 -362 c3 -186 5 -207 26 -248 35 -71 75 -114 144 -151
l63 -34 245 0 245 0 63 34 c70 38 100 69 140 145 26 50 27 57 30 254 l4 202
638 0 638 0 4 -202 c3 -186 5 -207 26 -248 35 -71 75 -114 144 -151 l63 -34
245 0 245 0 51 27 c76 40 107 70 145 140 l34 63 3 203 4 202 294 0 295 0 24
-25 25 -24 0 -456 0 -455 -2240 0 -2240 0 0 455 0 456 25 24 24 25 295 0 294
0 4 -202z"/>
<path d="M2494 3541 c-61 -28 -89 -73 -89 -143 0 -95 58 -153 155 -153 63 0
95 16 134 69 31 41 29 130 -3 175 -26 36 -90 71 -131 71 -14 0 -43 -9 -66 -19z"/>
<path d="M1445 2022 c-16 -10 -119 -101 -228 -200 -110 -100 -202 -182 -205
-181 -4 0 -29 27 -56 61 -62 76 -98 98 -157 98 -111 0 -191 -121 -146 -222 17
-37 230 -293 262 -314 40 -26 105 -29 147 -8 20 11 162 135 316 276 301 277
310 288 299 371 -10 76 -68 128 -149 134 -40 3 -60 -1 -83 -15z"/>
<path d="M2845 2022 c-16 -10 -119 -101 -228 -200 -110 -100 -202 -182 -205
-182 -4 1 -29 29 -57 64 -65 82 -88 98 -146 104 -60 6 -100 -10 -139 -54 -35
-40 -47 -93 -32 -142 12 -40 237 -322 278 -349 39 -25 105 -28 146 -7 20 11
162 135 316 277 301 276 310 287 299 370 -10 76 -68 128 -149 134 -40 3 -60
-1 -83 -15z"/>
<path d="M4245 2022 c-16 -10 -119 -101 -228 -200 -110 -100 -202 -182 -205
-181 -4 0 -29 27 -56 61 -62 76 -98 98 -157 98 -111 0 -191 -121 -146 -222 17
-37 230 -293 262 -314 40 -26 105 -29 147 -8 20 11 162 135 316 276 301 277
310 288 299 371 -10 76 -68 128 -149 134 -40 3 -60 -1 -83 -15z"/>
</g>
</svg>
