<svg  class="w-10"  viewBox="0 0 511 455.22"><path class="text-white" fill="currentColor" d="M120,.62a33.75,33.75,0,0,0-21.5,17.6c-2.4,4.7-2.5,6.1-2.8,25.2l-.3,20.2-32.8.3-32.7.3-7.6,3.7c-9.1,4.5-14.7,10.3-19.1,19.6L0,94.22v83.7c0,82.9,0,83.7,2.1,86.4,3.9,5.3,7.1,6.9,13.4,6.9s9.5-1.6,13.4-6.9c1.9-2.5,2.1-4.4,2.4-21.7l.3-18.9H479.5v195.1l-2.5,2.4-2.4,2.5H255.7c-214.1,0-219,0-221.3-1.9l-2.4-1.9-.5-53c-.5-51.6-.6-53.1-2.6-55.8-3.9-5.3-7.1-6.9-13.4-6.9s-9.5,1.6-13.4,6.9c-2.1,2.7-2.1,3.8-2.1,58.5v55.7l3.7,7.6C8.2,442,14,447.62,23.3,452l6.7,3.2H481.1l7.6-3.7c9.1-4.5,14.7-10.3,19.1-19.6l3.2-6.7v-331l-3.2-6.7c-4.4-9.3-10-15.1-19.1-19.6l-7.6-3.7-32.7-.3-32.7-.3-.4-20.2-.3-20.2-3.4-6.3C407.9,10,403.7,6,396.5,2.52c-4.3-2.2-5.6-2.3-29-2.3-24.1,0-24.6,0-29.5,2.5a35.19,35.19,0,0,0-15.5,15.5c-2.4,4.7-2.5,6.1-2.8,25.2l-.3,20.3H191.7l-.4-20.3-.3-20.2-3.4-6.3c-3.7-6.9-8-10.9-15.1-14.4-4.2-2.1-5.9-2.3-27-2.5C133.1-.08,121.7.22,120,.62Zm39.5,79.1v48h-32v-96h32Zm224,0v48h-32v-96h32ZM95.7,115.92c.3,18.6.5,20.7,2.6,24.8,3.5,7.1,7.5,11.4,14.4,15.1l6.3,3.4h49l6.3-3.4c7-3.8,10-6.9,14-14.5,2.6-5,2.7-5.7,3-25.4l.4-20.2H319.3l.4,20.2c.3,18.6.5,20.7,2.6,24.8,3.5,7.1,7.5,11.4,14.4,15.1l6.3,3.4h49l5.1-2.7c7.6-4,10.7-7,14.5-14l3.4-6.3.3-20.3.4-20.2h58.9l2.4,2.5,2.5,2.4v91.1H31.5v-91.1l2.5-2.4,2.4-2.5H95.3Z"/><path class="text-white" fill="currentColor" d="M248.9,129.62c-6.1,2.8-8.9,7.3-8.9,14.3,0,9.5,5.8,15.3,15.5,15.3,6.3,0,9.5-1.6,13.4-6.9,3.1-4.1,2.9-13-.3-17.5-2.6-3.6-9-7.1-13.1-7.1A21.88,21.88,0,0,0,248.9,129.62Z"/><path class="text-green" fill="currentColor" d="M144,281.52c-1.6,1-11.9,10.1-22.8,20s-20.2,18.2-20.5,18.1-2.9-2.7-5.6-6.1c-6.2-7.6-9.8-9.8-15.7-9.8-11.1,0-19.1,12.1-14.6,22.2,1.7,3.7,23,29.3,26.2,31.4a16.24,16.24,0,0,0,14.7.8c2-1.1,16.2-13.5,31.6-27.6,30.1-27.7,31-28.8,29.9-37.1-1-7.6-6.8-12.8-14.9-13.4C148.3,279.72,146.3,280.12,144,281.52Z"/><path class="text-green" fill="currentColor" d="M284,281.52c-1.6,1-11.9,10.1-22.8,20s-20.2,18.2-20.5,18.2-2.9-2.9-5.7-6.4c-6.5-8.2-8.8-9.8-14.6-10.4-6-.6-10,1-13.9,5.4a14.87,14.87,0,0,0-3.2,14.2c1.2,4,23.7,32.2,27.8,34.9a16.33,16.33,0,0,0,14.6.7c2-1.1,16.2-13.5,31.6-27.7,30.1-27.6,31-28.7,29.9-37-1-7.6-6.8-12.8-14.9-13.4C288.3,279.72,286.3,280.12,284,281.52Z"/><path class="text-green" fill="currentColor" d="M424,281.52c-1.6,1-11.9,10.1-22.8,20s-20.2,18.2-20.5,18.1-2.9-2.7-5.6-6.1c-6.2-7.6-9.8-9.8-15.7-9.8-11.1,0-19.1,12.1-14.6,22.2,1.7,3.7,23,29.3,26.2,31.4a16.24,16.24,0,0,0,14.7.8c2-1.1,16.2-13.5,31.6-27.6,30.1-27.7,31-28.8,29.9-37.1-1-7.6-6.8-12.8-14.9-13.4C428.3,279.72,426.3,280.12,424,281.52Z"/></svg>