<svg xmlns="http://www.w3.org/2000/svg" xmlns:xlink="http://www.w3.org/1999/xlink" viewBox="0 0 107.52 141.33"><defs><style>.cls-1{fill:url(#linear-gradient);}</style><linearGradient id="linear-gradient" x1="53.76" y1="141.33" x2="53.76" gradientUnits="userSpaceOnUse"><stop offset="0" stop-color="#1628a3"/><stop offset="1" stop-color="#fff"/></linearGradient></defs><title>making-no-3</title><g id="Layer_2" data-name="Layer 2"><g id="Layer_1-2" data-name="Layer 1"><path class="cls-1" d="M28.35,60.27,59.43,29H6.72V0h93.87V24.57L65.31,58C77.7,59,88,63,95.76,70.14s11.76,16.17,11.76,27.3c0,33.18-28.35,43.89-59.22,43.89-17,0-35.07-4-48.3-10.08L3.57,102.9c12,6.51,28.77,9.66,42.42,9.66,17.85,0,26.88-5.46,26.88-16.17S62,79.59,45.36,79.59a58.88,58.88,0,0,0-17,2.1Z"/></g></g></svg>