<svg xmlns="http://www.w3.org/2000/svg" viewBox="0 0 479.4 511.56"><path class="text-white" fill="currentColor" d="M233.33,1.08c-4.1,1.8-8.3,6.9-9,10.9-.4,1.8-.5,10.1-.3,18.4.3,16.5.8,18,7.2,22.7,3.9,2.9,13.3,2.9,17.2,0,6.7-4.9,6.9-5.8,6.9-25.4s-.3-20.5-6.7-25.3C245.33-.12,237.33-.82,233.33,1.08Z"/><path class="text-white" fill="currentColor" d="M73.13,67.78c-6.7,4.2-9.4,14-5.9,20.7.8,1.5,6.3,7.5,12.3,13.3,11.6,11.5,15.1,13.4,21.8,11.9s10.6-5.3,12.5-12.1c1.9-6.5-.2-10.4-11.9-22.2-5.8-6-11.8-11.5-13.3-12.3C84.63,65,76.93,65.28,73.13,67.78Z"/><path class="text-white" fill="currentColor" d="M390.33,67.58c-1.6,1-7.6,6.5-13.1,12.2-11.1,11.4-13.3,15.4-11.4,21.8,1.9,6.8,5.9,10.6,12.5,12.1s10.2-.4,21.8-11.9c6-5.8,11.5-11.8,12.3-13.3,2.1-4,1.8-11.5-.7-15.4C407.43,66.08,397,63.38,390.33,67.58Z"/><path class="text-white" fill="currentColor" d="M221.33,88.38c-62.6,8.1-113.6,53-128.9,113.4-3.5,13.6-4.6,23.1-4.6,38.4,0,52,26.9,100,72.2,128.8,3.1,2,6.2,4.5,6.7,5.6s1.1,6.4,1.1,11.8c0,14.1,2.5,22.2,9.5,30.8,3,3.7,3.2,4.3,2,6.5-2.7,5.3-3.7,13.7-3.4,27.7.4,13.8.5,14.1,4.2,21.5,6.9,14,18.7,21.6,34.6,22.6l8.8.5,1.1,4.2c1.4,5.1,6.6,10.1,11.7,11.1,8.4,1.5,16.6-3.3,18.7-11.1l1.1-4.2,8.8-.5c15.9-1,27.7-8.6,34.6-22.6,3.7-7.4,3.8-7.7,4.2-21.5.3-14-.7-22.4-3.4-27.7-1.2-2.2-1-2.8,2-6.5,7-8.6,9.5-16.7,9.5-30.8,0-5.4.5-10.7,1.1-11.8s3.6-3.6,6.7-5.6c74.2-47,94.4-144.9,44.7-216.4-7.9-11.3-27.7-30.9-39.3-38.8a148.36,148.36,0,0,0-86-26C230.93,87.88,223,88.18,221.33,88.38Zm36.5,32.7a128.1,128.1,0,0,1,50.1,19.6c9.6,6.5,25.7,23.1,32.5,33.5,13.9,21.4,20.2,44.4,19.2,70.3-1.6,39.6-21.3,74-55.5,96.5-19.1,12.6-24.2,21.7-24.3,43.5,0,9.6-.2,10.5-2.5,12.7l-2.4,2.5H240c-32.9,0-35.1-.1-37.3-1.9s-2.4-2.8-3-15.3c-.5-12.3-.8-14-3.6-20-4.2-9-8.8-13.7-21.7-22.2-35.1-23.3-54.6-59.2-54.6-100.6C119.83,166.08,184.93,110.18,257.83,121.08Zm11.5,313.1c2.4,2.3,2.5,3.1,2.5,13.5s-.1,11.2-2.5,13.5l-2.4,2.5h-54.2l-2.4-2.5c-2.4-2.3-2.5-3.1-2.5-13.5s.1-11.2,2.5-13.5l2.4-2.5h54.2Z"/><path class="text-green" fill="currentColor" d="M226.33,153.18a15.88,15.88,0,0,0-7.4,24.9c3.8,4.8,7.4,5.9,19.9,6.1,8.6.2,13.2.8,18.1,2.3,13.6,4.5,26,15.1,32.9,28.4,2.2,4.2,5.4,8.8,7,10.2,8.4,7,22.1,2.4,25-8.6,1.5-5.2-.4-11.3-6.8-22.2-8.8-15-24.6-28.6-41.4-35.8C259.23,152.38,235.93,149.78,226.33,153.18Z"/><path class="text-green" fill="currentColor" d="M293.73,262c-12.6,8.4-6.8,28.7,8.3,28.7,5.7,0,9.6-1.7,13.1-5.9,6.1-7.3,3.4-19-5.5-23.7C305.43,258.88,297.73,259.28,293.73,262Z"/><path class="text-white" fill="currentColor" d="M9.33,225.08a16.05,16.05,0,0,0-5.4,25.1c4.4,5,8.1,5.7,26.1,5.3,17.1-.3,18.4-.8,23.2-7.2,2.9-3.9,2.9-13.3,0-17.2-4.8-6.5-6-6.9-24.2-7.1C16.63,223.78,11.53,224.08,9.33,225.08Z"/><path class="text-white" fill="currentColor" d="M433.33,225.08a16.05,16.05,0,0,0-5.4,25.1c4.4,5,8.1,5.7,26.1,5.3,17.1-.3,18.4-.8,23.2-7.2,2.9-3.9,2.9-13.3,0-17.2-4.8-6.5-6-6.9-24.2-7.1C440.63,223.78,435.53,224.08,433.33,225.08Z"/><path class="text-white" fill="currentColor" d="M93.43,366.18c-4.2,1.5-23.5,19.7-26.2,24.7-3.6,6.8-.7,16.6,6,20.7,3.9,2.5,11.4,2.8,15.4.7,1.5-.8,7.5-6.3,13.3-12.3,8-8.1,11-11.8,11.8-14.7a16.12,16.12,0,0,0-11.4-19.5C97.53,364.48,98.23,364.48,93.43,366.18Z"/><path class="text-white" fill="currentColor" d="M376.83,365.88c-8,2.2-13.1,11.3-10.9,19.4.8,2.9,3.8,6.6,11.8,14.7,5.8,6,11.8,11.5,13.3,12.3a19.66,19.66,0,0,0,7.5,1.4c9,0,15.3-6.3,15.3-15.3a19.66,19.66,0,0,0-1.4-7.5c-.8-1.5-6.3-7.5-12.3-13.3-8.1-8.1-11.8-11-14.8-11.8a23.4,23.4,0,0,0-4.5-1A33.7,33.7,0,0,0,376.83,365.88Z"/></svg>