<svg  viewBox="0 0 499.4 511.55"><defs><style>.cls-1{fill:#fff;}.cls-2{fill:#33c53a;}</style></defs><title>making-claim-icon-3</title><g id="Layer_2" data-name="Layer 2"><g id="Layer_1-2" data-name="Layer 1"><path class="text-white" d="M162,.68c-23.9,3.4-40.6,13.4-48.4,28.9-9,17.6-7.9,39.1,3.3,66.2.6,1.3-.7,2.3-5.9,4.7-16.1,7.6-27.5,25.4-27.5,43.2,0,10.7,4.7,23.4,11.5,30.9l3.5,3.9-7.2,5.8c-10.1,8-26.7,24.2-35.2,34.4-28.7,34.2-47,75.2-54.2,121.2-2.7,17-2.5,44.9.5,58.8Q18.15,472.48,95.1,499c22,7.6,45.6,11.4,76.4,12.4,29,.8,48.4-1.2,76.1-7.8l12.6-3,4.9,3a78.28,78.28,0,0,0,10.4,5.4l5.5,2.2,87.5.3c60.7.2,89-.1,92.7-.8a51,51,0,0,0,24.5-13.8c16.1-16.8,18.2-41.1,5.3-60.2l-3.4-5,3.4-5c6.1-9.1,7.9-15.2,7.9-27s-1.8-17.9-7.9-27l-3.4-5,3.4-5a47.57,47.57,0,0,0-4.8-59.8c-5.5-5.8-10.5-9.1-19-12.5-5.1-2.1-6.7-2.2-64.5-2.7l-59.4-.5-3.2-8c-14.3-35.4-41.4-71.2-71.6-94.7l-8-6.1,3.5-3.8c6.8-7.5,11.5-20.2,11.5-30.9,0-17.8-11.4-35.6-27.5-43.2-5.2-2.4-6.5-3.4-5.9-4.7,3.9-9,7.6-22.2,8.6-31,3.8-32.4-11.4-54.3-43.2-62.1C197.9.28,172.3-.82,162,.68Zm33,32c10.3,1.5,19.2,6.2,22.2,11.9,5.1,9.7,1.4,28.7-9,45.8l-3.1,5.3H153.9l-3.1-5.3c-10.4-17.1-14.1-36.1-9-45.8,1.9-3.5,3.6-5,8.8-7.7a48.7,48.7,0,0,1,12.4-4.1A148.86,148.86,0,0,1,195,32.68Zm41.1,97.6c5.3,3.9,6.9,7.1,6.9,13.4s-1.6,9.5-6.9,13.4c-2.7,2-4,2.1-54.4,2.4-34.5.2-52.9,0-55.4-.8-10.1-2.9-14-16.8-7.1-25.1,5.1-6,3.9-5.9,61.5-5.6C232.1,128.18,233.4,128.18,236.1,130.28Zm-9.2,65.5c25.9,13.3,49.9,36.6,68,65.8,4.9,8,13.6,24.3,13.6,25.6,0,.3-5.1.5-11.3.5-17.9,0-28.3,3.7-38.9,13.8-16.8,16-19.4,41.7-6.3,61.2l3.4,5-3.4,5c-6.1,9.1-7.9,15.2-7.9,27s1.8,17.9,7.9,27l3.4,5-3.4,5c-5.7,8.5-7.8,15.3-7.9,25.7l-.1,9.2-8.5,2c-18.6,4.3-30.5,5.6-55,5.6-32.7,0-51.7-2.6-75.1-10.4-29.6-10-49.6-25.5-61.7-48.1-28.1-52.2-5.2-141.4,50.3-196.5,12.5-12.4,23.7-20.8,37-27.7l9-4.7,39.5-.1H219Zm233.2,126.5c5.3,3.9,6.9,7.1,6.9,13.4s-1.6,9.5-6.9,13.4c-2.7,2.1-3.7,2.1-86.4,2.4-56.9.2-84.9,0-87.4-.8-10.1-2.9-14-16.8-7.1-25.1,5.2-6.1,1-5.9,93.5-5.6C456.5,320.18,457.4,320.18,460.1,322.28Zm0,64c5.3,3.9,6.9,7.1,6.9,13.4s-1.6,9.5-6.9,13.4c-2.7,2.1-3.7,2.1-86.4,2.4-56.9.2-84.9,0-87.4-.8-10.1-2.9-14-16.8-7.1-25.1,5.2-6.1,1-5.9,93.5-5.6C456.5,384.18,457.4,384.18,460.1,386.28Zm0,64c5.3,3.9,6.9,7.1,6.9,13.4s-1.6,9.5-6.9,13.4c-2.7,2.1-3.7,2.1-86.4,2.4-56.9.2-84.9,0-87.4-.8-10.1-2.9-14-16.8-7.1-25.1,5.2-6.1,1-5.9,93.5-5.6C456.5,448.18,457.4,448.18,460.1,450.28Z"/><path class="text-green" d="M173,241.08c-6.6,3-9.5,8.4-9.5,17.6v5.8l-3.4.6c-6.7,1.3-17.1,7.4-22.8,13.4-18.1,19-18.3,47.1-.5,66,5.6,5.8,10.7,9.2,19,12.5,4.2,1.6,8.4,2.1,21.4,2.6,14.2.5,16.5.8,18.9,2.7,5.3,3.9,6.9,7.1,6.9,13.4s-1.6,9.5-6.9,13.4c-2.6,2-4.4,2.1-32.6,2.6s-30,.6-32.6,2.6c-5.3,3.9-6.9,7.1-6.9,13.4s1.6,9.5,6.9,13.4c2.4,1.9,4.4,2.1,17.6,2.4l14.8.3.4,6.9c.4,7.4,2,10.5,7.2,14.4,3.9,2.9,13.3,2.9,17.2,0,5.4-4,6.8-7,7.2-14.9l.4-7.3,3.3-.6c6.6-1.3,17-7.4,22.7-13.4,18.1-19,18.3-47.1.5-66-5.6-5.8-10.7-9.2-19-12.5-4.2-1.6-8.4-2.1-21.4-2.6-14.2-.5-16.5-.8-18.9-2.7-5.3-3.9-6.9-7.1-6.9-13.4s1.6-9.5,6.9-13.4c2.6-2,4.4-2.1,32.6-2.6s30-.6,32.6-2.6c5.3-3.9,6.9-7.1,6.9-13.4s-1.6-9.5-6.9-13.4c-2.4-1.9-4.4-2.1-17.6-2.4l-14.8-.3-.4-6.9c-.4-7.4-2-10.5-7-14.3C184.9,239.88,177,239.18,173,241.08Z"/><path class="text-white" d="M387,225.08c-10.1,4.4-12.5,17.8-4.6,25.7,6.5,6.5,15.7,6.5,22.2,0C417,238.38,403.1,218.08,387,225.08Z"/></g></g></svg>