<?xml version="1.0" standalone="no"?>
<!DOCTYPE svg PUBLIC "-//W3C//DTD SVG 20010904//EN"
 "http://www.w3.org/TR/2001/REC-SVG-20010904/DTD/svg10.dtd">
<svg version="1.0" xmlns="http://www.w3.org/2000/svg"
 width="512.000000pt" height="512.000000pt" viewBox="0 0 512.000000 512.000000"
 preserveAspectRatio="xMidYMid meet">

<g transform="translate(0.000000,512.000000) scale(0.100000,-0.100000)"
fill="#000000" stroke="none">
<path d="M2335 5104 c-911 -123 -1570 -907 -1532 -1824 12 -291 90 -590 214
-820 19 -36 345 -593 725 -1238 487 -827 699 -1178 720 -1193 61 -44 143 -34
194 23 39 41 1426 2369 1477 2477 344 728 204 1558 -355 2097 -385 372 -920
549 -1443 478z m381 -1029 c144 -33 273 -105 378 -213 105 -108 167 -222 203
-371 22 -95 13 -302 -17 -391 -70 -207 -208 -368 -394 -459 -120 -59 -190 -75
-336 -75 -150 -1 -214 14 -350 81 -81 39 -109 60 -191 142 -82 82 -103 110
-142 191 -58 117 -77 187 -84 310 -18 306 148 585 433 728 147 74 330 95 500
57z"/>
</g>
</svg>
