<?xml version="1.0" standalone="no"?>
<!DOCTYPE svg PUBLIC "-//W3C//DTD SVG 20010904//EN"
 "http://www.w3.org/TR/2001/REC-SVG-20010904/DTD/svg10.dtd">
<svg version="1.0" xmlns="http://www.w3.org/2000/svg"
 width="512.000000pt" height="512.000000pt" viewBox="0 0 512.000000 512.000000"
 preserveAspectRatio="xMidYMid meet">

<g transform="translate(0.000000,512.000000) scale(0.100000,-0.100000)"
fill="#000000" stroke="none">
<path d="M1685 5110 c-239 -34 -406 -134 -484 -289 -90 -176 -79 -391 33 -662
6 -13 -7 -23 -59 -47 -161 -76 -275 -254 -275 -432 0 -107 47 -234 115 -309
l35 -39 -72 -58 c-101 -80 -267 -242 -352 -344 -287 -342 -470 -752 -542
-1212 -27 -170 -25 -449 5 -588 105 -492 413 -826 927 -1003 220 -76 456 -114
764 -124 290 -8 484 12 761 78 l126 30 49 -30 c26 -17 73 -41 104 -54 l55 -22
875 -3 c607 -2 890 1 927 8 86 18 183 73 245 138 161 168 182 411 53 602 l-34
50 34 50 c61 91 79 152 79 270 0 118 -18 179 -79 270 l-34 50 34 50 c127 189
108 433 -48 598 -55 58 -105 91 -190 125 -51 21 -67 22 -645 27 l-594 5 -32
80 c-143 354 -414 712 -716 947 l-80 61 35 38 c68 75 115 202 115 309 0 178
-114 356 -275 432 -52 24 -65 34 -59 47 39 90 76 222 86 310 38 324 -114 543
-432 621 -96 24 -352 35 -455 20z m330 -320 c103 -15 192 -62 222 -119 51 -97
14 -287 -90 -458 l-31 -53 -256 0 -256 0 -31 53 c-104 171 -141 361 -90 458
19 35 36 50 88 77 35 18 91 36 124 41 84 12 237 12 320 1z m411 -976 c53 -39
69 -71 69 -134 0 -63 -16 -95 -69 -134 -27 -20 -40 -21 -544 -24 -345 -2 -529
0 -554 8 -101 29 -140 168 -71 251 51 60 39 59 615 56 514 -2 527 -2 554 -23z
m-92 -655 c259 -133 499 -366 680 -658 49 -80 136 -243 136 -256 0 -3 -51 -5
-113 -5 -179 0 -283 -37 -389 -138 -168 -160 -194 -417 -63 -612 l34 -50 -34
-50 c-61 -91 -79 -152 -79 -270 0 -118 18 -179 79 -270 l34 -50 -34 -50 c-57
-85 -78 -153 -79 -257 l-1 -92 -85 -20 c-186 -43 -305 -56 -550 -56 -327 0
-517 26 -751 104 -296 100 -496 255 -617 481 -281 522 -52 1414 503 1965 125
124 237 208 370 277 l90 47 395 1 395 0 79 -41z m2332 -1265 c53 -39 69 -71
69 -134 0 -63 -16 -95 -69 -134 -27 -21 -37 -21 -864 -24 -569 -2 -849 0 -874
8 -101 29 -140 168 -71 251 52 61 10 59 935 56 838 -2 847 -2 874 -23z m0
-640 c53 -39 69 -71 69 -134 0 -63 -16 -95 -69 -134 -27 -21 -37 -21 -864 -24
-569 -2 -849 0 -874 8 -101 29 -140 168 -71 251 52 61 10 59 935 56 838 -2
847 -2 874 -23z m0 -640 c53 -39 69 -71 69 -134 0 -63 -16 -95 -69 -134 -27
-21 -37 -21 -864 -24 -569 -2 -849 0 -874 8 -101 29 -140 168 -71 251 52 61
10 59 935 56 838 -2 847 -2 874 -23z"/>
<path d="M1795 2706 c-66 -30 -95 -84 -95 -176 l0 -58 -34 -6 c-67 -13 -171
-74 -228 -134 -181 -190 -183 -471 -5 -660 56 -58 107 -92 190 -125 42 -16 84
-21 214 -26 142 -5 165 -8 189 -27 53 -39 69 -71 69 -134 0 -63 -16 -95 -69
-134 -26 -20 -44 -21 -326 -26 -282 -5 -300 -6 -326 -26 -53 -39 -69 -71 -69
-134 0 -63 16 -95 69 -134 24 -19 44 -21 176 -24 l148 -3 4 -69 c4 -74 20
-105 72 -144 39 -29 133 -29 172 0 54 40 68 70 72 149 l4 73 33 6 c66 13 170
74 227 134 181 190 183 471 5 660 -56 58 -107 92 -190 125 -42 16 -84 21 -214
26 -142 5 -165 8 -189 27 -53 39 -69 71 -69 134 0 63 16 95 69 134 26 20 44
21 326 26 282 5 300 6 326 26 53 39 69 71 69 134 0 63 -16 95 -69 134 -24 19
-44 21 -176 24 l-148 3 -4 69 c-4 74 -20 105 -70 143 -34 25 -113 32 -153 13z"/>
<path d="M3935 2866 c-101 -44 -125 -178 -46 -257 65 -65 157 -65 222 0 124
124 -15 327 -176 257z"/>
</g>
</svg>
