<svg xmlns="http://www.w3.org/2000/svg" viewBox="0 0 291.22 511"><title>slider-arrow-right</title><g id="Layer_2" data-name="Layer 2"><g id="Layer_1-2" data-name="Layer 1"><path d="M290.2,24A38.64,38.64,0,0,0,271,2.4C266.7.3,264.6,0,255.5,0c-9.6,0-11,.2-16,2.8C235,5.2,212.7,27,120.3,119.3,25.8,213.7,6,234,3.3,239,.2,244.7,0,245.5,0,255.5S.2,266.3,3.3,272c2.7,5.1,22.4,25.2,117.5,120.1C211.4,482.6,236,506.6,240,508.6c4.3,2.1,6.4,2.4,15.5,2.4,9.6,0,11-.3,16.2-2.9a38.34,38.34,0,0,0,16.5-16.6c2.5-5,2.8-6.5,2.8-15.5,0-17.5,8.7-7.5-104.4-120.7L87,255.5l99.6-99.7C298.4,43.7,290.7,52.6,291.2,36.5,291.3,31.5,290.9,26.4,290.2,24Z"/></g></g></svg>