<?xml version="1.0" standalone="yes"?>
<svg xmlns="http://www.w3.org/2000/svg" width="512" height="512">
<path style="fill:#ffffff; stroke:none;" d="M0 0L0 512L94 512L94 511C57.5471 508.023 28.5054 472.081 26.0895 437C21.5689 371.356 26 303.819 26 238L26 129C26 110.906 24.4272 92.0065 26.1698 74C29.5283 39.2939 57.5267 3.97903 94 1L65 0L0 0z"/>
<path style="fill:#010101; stroke:none;" d="M94 0.439056C57.4973 6.14011 28.6414 36.9438 26.0895 74C24.1123 102.711 26 132.215 26 161L26 334L26 407C26 426.243 25.0559 444.696 32.0648 463C41.9878 488.915 66.9301 507.333 94 511.561C108.431 513.815 124.4 512 139 512C151.416 512 169.279 515.262 181 511.03C197.302 505.144 198.295 481.5 183 473.84C175.879 470.273 165.759 472 158 472C131.969 472 94.41 479.053 76.0401 455.961C66.6031 444.098 67 430.357 67 416L67 367L67 143C67 115.846 58.264 72.0212 80.1705 51.5911C97.8399 35.1125 126.793 40 149 40L315 40C338.137 40 366.714 35.6166 382.96 56.0394C393.424 69.1934 392 85.1922 392 101L392 187C392 204.142 394.114 229.555 419 222.362C439.574 216.415 433 184.137 433 168L433 106C433 72.7018 432.267 39.1637 403 16.8989C375.125 -4.3064 341.997 0 309 0L166 0C142.754 0 116.959 -3.14667 94 0.439056z"/>
<path style="fill:#ffffff; stroke:none;" d="M365 0L365 1C375.037 1.81982 385.588 5.88409 394 11.3449C443.48 43.466 433 102.984 433 154C433 170.421 436.773 192.213 432.211 208C429.761 216.475 421.822 222.828 413 222.981C390.165 223.377 392 198.893 392 183L392 101C392 86.3784 393.698 70.7595 385.11 58.0038C370.014 35.5822 340.446 40 317 40L143 40C120.169 40 91.0342 35.4497 75.2894 56.0394C66.6572 67.3276 67 80.5043 67 94L67 144L67 365L67 418C67 431.929 66.7187 445.499 76.0401 456.91C94.1297 479.056 131.685 472 157 472C164.761 472 174.875 470.276 182 473.84C198.989 482.337 196.259 503.849 180 511L180 512L257 512L257 511C249.803 507.834 243.44 501.303 243.133 493C242.885 486.302 246.036 479.333 247.859 473C251.803 459.299 255.927 445.561 260.33 432C263.276 422.929 264.772 412.329 269.532 404C276.45 391.896 290.194 381.806 300 372L362 310C378.143 293.857 394.435 273.811 419 272.09C468.079 268.65 505.094 323.575 475.215 366C460.858 386.385 439.587 403.413 422 421L380 463C372.099 470.901 364.454 480.374 355 486.451C346.43 491.961 334.708 493.389 325 496.14C307.096 501.215 288.403 508.292 270 511L270 512L512 512L512 0L365 0z"/>
<path style="fill:#010101; stroke:none;" d="M120 120.558C101.865 125.316 101.558 153.246 119 159.146C133.549 164.067 155.656 160 171 160L288 160L325 160C331.555 160 338.23 160.765 343.996 157.03C358.305 147.761 354.744 122.926 337 120.213C322.015 117.922 305.165 120 290 120L195 120L145 120C137.145 120 127.631 118.556 120 120.558M120 200.558C101.865 205.316 101.558 233.246 119 239.146C133.549 244.067 155.656 240 171 240L288 240L325 240C331.555 240 338.23 240.765 343.996 237.03C358.305 227.761 354.744 202.926 337 200.213C322.015 197.922 305.165 200 290 200L195 200L145 200C137.145 200 127.631 198.556 120 200.558M415 272.439C393.497 275.824 379.644 291.356 365 306L303 368C286.038 384.962 270.59 397.775 263.341 421C256.578 442.667 244.478 468.315 243.094 491C242.235 505.084 254.16 512.851 267 511.91C285.962 510.52 306.716 501.633 325 496.421C335.002 493.57 347.17 492.128 356 486.451C365.454 480.374 373.099 470.901 381 463L423 421C440.469 403.531 463.461 386.104 476.532 365C504.026 320.613 466.495 264.333 415 272.439M120 280.558C101.865 285.316 101.558 313.246 119 319.146C128.507 322.361 142.022 320 152 320L224 320C234.615 320 251.35 323.145 261 318.312C276.626 310.486 275.33 283.881 257 280.34C247.572 278.519 236.591 280 227 280L168 280C153.245 280 134.275 276.813 120 280.558z"/>
<path style="fill:#ffffff; stroke:none;" d="M435 349C449.326 338.818 447.279 313.937 427 313.041C421.921 312.817 406.889 315.885 410.752 324C412.916 328.548 418.482 332.482 422 336L435 349M379 351L331 398L305.934 424L294 462C305.494 460.309 322.902 456.852 333 451.062C350.378 441.098 365.828 419.172 380 405L398.999 386C401.007 383.977 404.793 381.17 404.793 378C404.793 374.83 401.007 372.023 398.999 370C392.612 363.565 386.421 356.228 379 351z"/>
</svg>
