<?xml version="1.0" standalone="yes"?>
<svg xmlns="http://www.w3.org/2000/svg" width="512" height="512">
<path style="fill:#ffffff; stroke:none;" d="M0 0L0 239L1 239C9.20599 228.729 21.119 231 33 231L108 231C117.719 231 133.374 227.887 140.442 236.188C144.724 241.217 144 247.851 144 254L144 290L144 436L144 475C144 481.41 144.914 488.559 140.442 493.812C135.649 499.442 128.709 499 122 499L81 499L28 499C17.2955 499 8.21724 500.245 1 491L0 491L0 512L512 512L512 491L511 491C502.794 501.271 490.881 499 479 499L401 499C390.432 499 374.363 502.122 369.228 489.996C366.114 482.641 368 471.859 368 464L368 407L368 244L368 196C368 188.977 366.425 179.704 368.703 173.001C373.139 159.949 389.283 163 400 163L480 163C491.446 163 503.481 160.577 511 171L512 171L512 0L0 0z"/>
<path style="fill:#010101; stroke:none;" d="M194.001 13.5579C179.049 17.4997 184 41.403 184 53L184 176L184 412L184 471C184 478.402 182.02 488.783 187.533 494.66C194.572 502.162 210.674 499 220 499L286 499C295.955 499 308.346 500.979 318 498.442C332.991 494.503 328 470.674 328 459L328 336L328 102L328 42C328 34.9182 330.037 24.1073 325.347 18.1883C318.692 9.78885 302.434 13 293 13L226 13C216.05 13 203.648 11.0146 194.001 13.5579z"/>
<path style="fill:#ffffff; stroke:none;" d="M210 40L210 472L302 472L302 40L210 40z"/>
<path style="fill:#010101; stroke:none;" d="M377.004 163.703C364.207 168.085 368 186.555 368 197L368 298L368 439L368 475C368 480.788 366.965 487.777 370.228 492.906C376.192 502.278 392.549 499 402 499L471 499C480.684 499 493.773 501.281 502.999 498.146C515.945 493.746 512 475.688 512 465L512 364L512 223L512 185C512 180.028 513.123 173.411 510.258 169.043C504.1 159.655 487.595 163 478 163L409 163C399.449 163 386.078 160.596 377.004 163.703z"/>
<path style="fill:#ffffff; stroke:none;" d="M395 190L395 472L486 472L486 190L395 190z"/>
<path style="fill:#010101; stroke:none;" d="M10 231.558C-3.85532 235.199 0 253.143 0 264L0 363L0 457C0 466.536 -3.4785 484.793 1.89352 492.956C8.01803 502.262 24.4758 499 34 499L101 499C111.25 499 124.064 501.061 133.999 498.442C147.58 494.862 144 476.574 144 466L144 367L144 274C144 263.816 147.409 245.954 141.772 237.094C135.808 227.722 119.451 231 110 231L43 231C32.7449 231 19.9429 228.945 10 231.558z"/>
<path style="fill:#ffffff; stroke:none;" d="M26 258L26 472L117 472L117 258L26 258z"/>
</svg>
