<?xml version="1.0" standalone="no"?>
<!DOCTYPE svg PUBLIC "-//W3C//DTD SVG 20010904//EN"
 "http://www.w3.org/TR/2001/REC-SVG-20010904/DTD/svg10.dtd">
<svg version="1.0" xmlns="http://www.w3.org/2000/svg"
 width="512.000000pt" height="512.000000pt" viewBox="0 0 512.000000 512.000000"
 preserveAspectRatio="xMidYMid meet">
<metadata>
Created by potrace 1.16, written by Peter Selinger 2001-2019
</metadata>
<g transform="translate(0.000000,512.000000) scale(0.100000,-0.100000)"
fill="#000000" stroke="none">
<path d="M2483 5105 c-127 -34 -244 -116 -327 -228 -29 -40 -283 -431 -565
-870 -401 -624 -519 -801 -544 -815 -29 -15 -79 -18 -477 -22 -445 -5 -445 -5
-483 -28 -57 -36 -87 -95 -87 -172 0 -80 31 -138 94 -175 l43 -25 469 0 c285
0 487 5 514 11 77 18 168 68 233 129 52 49 149 192 612 908 603 932 573 893
673 894 105 0 202 -94 202 -196 0 -12 -52 -131 -116 -266 -147 -311 -235 -513
-268 -618 -23 -75 -25 -89 -16 -152 26 -181 141 -337 319 -428 155 -81 97 -76
936 -82 833 -6 793 -2 846 -73 20 -27 24 -44 24 -100 l0 -69 -67 -62 c-36 -35
-75 -81 -87 -104 -25 -49 -28 -145 -7 -196 24 -57 86 -111 163 -140 100 -38
143 -89 143 -168 0 -88 -59 -151 -153 -163 -69 -10 -115 -29 -156 -68 -45 -43
-61 -84 -61 -155 0 -83 30 -135 111 -192 81 -58 109 -99 109 -157 0 -48 -11
-75 -44 -111 -35 -39 -73 -53 -170 -61 -111 -9 -166 -36 -212 -102 -24 -35
-29 -54 -32 -113 -5 -96 21 -144 107 -205 86 -60 103 -89 99 -168 -4 -71 -24
-106 -79 -138 -33 -20 -57 -20 -1014 -25 l-980 -5 -38 -23 c-57 -36 -87 -95
-87 -172 0 -80 31 -138 94 -175 l44 -25 1023 2 1024 3 68 27 c175 70 295 208
342 393 27 107 15 302 -22 370 -9 15 -1 24 51 60 104 71 187 192 221 321 30
114 15 282 -33 381 l-18 38 60 65 c110 118 156 237 156 401 0 158 -46 278
-149 391 -44 47 -57 68 -50 79 5 8 20 49 34 92 35 109 35 244 0 354 -45 143
-148 266 -278 332 -122 62 -105 61 -872 61 -757 0 -780 2 -869 54 -48 28 -86
76 -86 110 0 27 79 203 235 523 73 149 139 295 146 325 17 68 17 207 0 278
-27 111 -77 199 -165 285 -87 86 -165 132 -271 160 -74 19 -241 19 -312 0z"/>
<path d="M2412 2033 c-35 -23 -153 -181 -602 -807 -308 -429 -572 -788 -587
-798 -32 -21 -107 -24 -139 -5 -12 7 -185 167 -384 357 -199 190 -379 355
-399 367 -27 18 -51 23 -100 23 -81 0 -139 -31 -176 -94 -34 -58 -35 -154 -2
-208 18 -30 550 -544 751 -726 64 -58 141 -101 225 -126 71 -21 220 -21 292 0
83 25 182 81 242 137 35 33 255 330 600 812 299 418 554 776 566 795 31 52 29
149 -4 206 -37 63 -95 94 -176 94 -54 0 -72 -5 -107 -27z"/>
</g>
</svg>
